<?xml version="1.0" encoding="UTF-8" standalone="no"?>
<!DOCTYPE svg PUBLIC "-//W3C//DTD SVG 1.1//EN"
 "http://www.w3.org/Graphics/SVG/1.1/DTD/svg11.dtd">
<!-- Generated by graphviz version 2.38.0 (20140413.2041)
 -->
<!-- Title: controllers_diagram Pages: 1 -->
<svg width="1113pt" height="1152pt"
 viewBox="0.00 0.00 1112.57 1152.00" xmlns="http://www.w3.org/2000/svg" xmlns:xlink="http://www.w3.org/1999/xlink">
<g id="graph0" class="graph" transform="scale(1 1) rotate(0) translate(513.593 638.5)">
<title>controllers_diagram</title>
<polygon fill="none" stroke="none" points="-513.593,513.5 -513.593,-638.5 598.979,-638.5 598.979,513.5 -513.593,513.5"/>
<!-- _diagram_info -->
<g id="node1" class="node"><title>_diagram_info</title>
<text text-anchor="start" x="-382.688" y="331.9" font-family="Times,serif" font-size="13.00">Controllers diagram</text>
<text text-anchor="start" x="-382.688" y="344.9" font-family="Times,serif" font-size="13.00">Date: Feb 21 2016 &#45; 13:09</text>
<text text-anchor="start" x="-382.688" y="357.9" font-family="Times,serif" font-size="13.00">Migration version: 20160219204852</text>
<text text-anchor="start" x="-382.688" y="370.9" font-family="Times,serif" font-size="13.00">Generated by RailRoady 1.4.1</text>
<text text-anchor="start" x="-382.688" y="383.9" font-family="Times,serif" font-size="13.00">http://railroady.prestonlee.com</text>
</g>
<!-- ApplicationController -->
<g id="node2" class="node"><title>ApplicationController</title>
<path fill="none" stroke="black" d="M232.524,322C232.524,322 385.476,322 385.476,322 391.476,322 397.476,316 397.476,310 397.476,310 397.476,188 397.476,188 397.476,182 391.476,176 385.476,176 385.476,176 232.524,176 232.524,176 226.524,176 220.524,182 220.524,188 220.524,188 220.524,310 220.524,310 220.524,316 226.524,322 232.524,322"/>
<text text-anchor="middle" x="309" y="191.2" font-family="Times,serif" font-size="14.00">ApplicationController</text>
<polyline fill="none" stroke="black" points="220.524,198 397.476,198 "/>
<polyline fill="none" stroke="black" points="220.524,222 397.476,222 "/>
<text text-anchor="start" x="228.524" y="237.2" font-family="Times,serif" font-size="14.00">configure_permitted_params</text>
<text text-anchor="start" x="228.524" y="251.2" font-family="Times,serif" font-size="14.00">current_products</text>
<text text-anchor="start" x="228.524" y="265.2" font-family="Times,serif" font-size="14.00">find_static_pages</text>
<text text-anchor="start" x="228.524" y="279.2" font-family="Times,serif" font-size="14.00">set_gon_user</text>
<text text-anchor="start" x="228.524" y="293.2" font-family="Times,serif" font-size="14.00">set_layout</text>
<polyline fill="none" stroke="black" points="220.524,300 397.476,300 "/>
<text text-anchor="start" x="228.524" y="315.2" font-family="Times,serif" font-size="14.00">_layout</text>
</g>
<!-- ChangesController -->
<g id="node3" class="node"><title>ChangesController</title>
<path fill="none" stroke="black" d="M-21.8794,-477C-21.8794,-477 75.8794,-477 75.8794,-477 81.8794,-477 87.8794,-483 87.8794,-489 87.8794,-489 87.8794,-557 87.8794,-557 87.8794,-563 81.8794,-569 75.8794,-569 75.8794,-569 -21.8794,-569 -21.8794,-569 -27.8794,-569 -33.8794,-563 -33.8794,-557 -33.8794,-557 -33.8794,-489 -33.8794,-489 -33.8794,-483 -27.8794,-477 -21.8794,-477"/>
<text text-anchor="middle" x="27" y="-553.8" font-family="Times,serif" font-size="14.00">ChangesController</text>
<polyline fill="none" stroke="black" points="-33.8794,-547 87.8794,-547 "/>
<polyline fill="none" stroke="black" points="-33.8794,-523 87.8794,-523 "/>
<polyline fill="none" stroke="black" points="-33.8794,-499 87.8794,-499 "/>
<text text-anchor="start" x="-25.8794" y="-483.8" font-family="Times,serif" font-size="14.00">_layout</text>
</g>
<!-- Coach::AreasController -->
<g id="node4" class="node"><title>Coach::AreasController</title>
<path fill="none" stroke="black" d="M11.7861,424C11.7861,424 142.214,424 142.214,424 148.214,424 154.214,418 154.214,412 154.214,412 154.214,346 154.214,346 154.214,340 148.214,334 142.214,334 142.214,334 11.7861,334 11.7861,334 5.78613,334 -0.213867,340 -0.213867,346 -0.213867,346 -0.213867,412 -0.213867,412 -0.213867,418 5.78613,424 11.7861,424"/>
<text text-anchor="middle" x="77" y="349.2" font-family="Times,serif" font-size="14.00">Coach::AreasController</text>
<polyline fill="none" stroke="black" points="-0.213867,356 154.214,356 "/>
<text text-anchor="start" x="7.78613" y="371.2" font-family="Times,serif" font-size="14.00">show</text>
<polyline fill="none" stroke="black" points="-0.213867,378 154.214,378 "/>
<polyline fill="none" stroke="black" points="-0.213867,402 154.214,402 "/>
<text text-anchor="start" x="7.78613" y="417.2" font-family="Times,serif" font-size="14.00">_layout</text>
</g>
<!-- Coach::EventsController -->
<g id="node5" class="node"><title>Coach::EventsController</title>
<path fill="none" stroke="black" d="M437.403,424C437.403,424 568.597,424 568.597,424 574.597,424 580.597,418 580.597,412 580.597,412 580.597,318 580.597,318 580.597,312 574.597,306 568.597,306 568.597,306 437.403,306 437.403,306 431.403,306 425.403,312 425.403,318 425.403,318 425.403,412 425.403,412 425.403,418 431.403,424 437.403,424"/>
<text text-anchor="middle" x="503" y="321.2" font-family="Times,serif" font-size="14.00">Coach::EventsController</text>
<polyline fill="none" stroke="black" points="425.403,328 580.597,328 "/>
<text text-anchor="start" x="433.403" y="343.2" font-family="Times,serif" font-size="14.00">additional_params</text>
<text text-anchor="start" x="433.403" y="357.2" font-family="Times,serif" font-size="14.00">event_params</text>
<text text-anchor="start" x="433.403" y="371.2" font-family="Times,serif" font-size="14.00">index</text>
<polyline fill="none" stroke="black" points="425.403,378 580.597,378 "/>
<polyline fill="none" stroke="black" points="425.403,402 580.597,402 "/>
<text text-anchor="start" x="433.403" y="417.2" font-family="Times,serif" font-size="14.00">_layout</text>
</g>
<!-- CoachesController -->
<g id="node6" class="node"><title>CoachesController</title>
<path fill="none" stroke="black" d="M453.514,-205C453.514,-205 550.486,-205 550.486,-205 556.486,-205 562.486,-211 562.486,-217 562.486,-217 562.486,-311 562.486,-311 562.486,-317 556.486,-323 550.486,-323 550.486,-323 453.514,-323 453.514,-323 447.514,-323 441.514,-317 441.514,-311 441.514,-311 441.514,-217 441.514,-217 441.514,-211 447.514,-205 453.514,-205"/>
<text text-anchor="middle" x="502" y="-307.8" font-family="Times,serif" font-size="14.00">CoachesController</text>
<polyline fill="none" stroke="black" points="441.514,-301 562.486,-301 "/>
<text text-anchor="start" x="449.514" y="-285.8" font-family="Times,serif" font-size="14.00">index</text>
<text text-anchor="start" x="449.514" y="-271.8" font-family="Times,serif" font-size="14.00">show</text>
<polyline fill="none" stroke="black" points="441.514,-265 562.486,-265 "/>
<polyline fill="none" stroke="black" points="441.514,-241 562.486,-241 "/>
<text text-anchor="start" x="449.514" y="-225.8" font-family="Times,serif" font-size="14.00">_layout</text>
<text text-anchor="start" x="449.514" y="-211.8" font-family="Times,serif" font-size="14.00">set_coach</text>
</g>
<!-- AreasController -->
<g id="node7" class="node"><title>AreasController</title>
<path fill="none" stroke="black" d="M-379.441,-392C-379.441,-392 -292.559,-392 -292.559,-392 -286.559,-392 -280.559,-398 -280.559,-404 -280.559,-404 -280.559,-526 -280.559,-526 -280.559,-532 -286.559,-538 -292.559,-538 -292.559,-538 -379.441,-538 -379.441,-538 -385.441,-538 -391.441,-532 -391.441,-526 -391.441,-526 -391.441,-404 -391.441,-404 -391.441,-398 -385.441,-392 -379.441,-392"/>
<text text-anchor="middle" x="-336" y="-522.8" font-family="Times,serif" font-size="14.00">AreasController</text>
<polyline fill="none" stroke="black" points="-391.441,-516 -280.559,-516 "/>
<text text-anchor="start" x="-383.441" y="-500.8" font-family="Times,serif" font-size="14.00">index</text>
<text text-anchor="start" x="-383.441" y="-486.8" font-family="Times,serif" font-size="14.00">show</text>
<text text-anchor="start" x="-383.441" y="-472.8" font-family="Times,serif" font-size="14.00">total</text>
<polyline fill="none" stroke="black" points="-391.441,-466 -280.559,-466 "/>
<polyline fill="none" stroke="black" points="-391.441,-442 -280.559,-442 "/>
<text text-anchor="start" x="-383.441" y="-426.8" font-family="Times,serif" font-size="14.00">_layout</text>
<text text-anchor="start" x="-383.441" y="-412.8" font-family="Times,serif" font-size="14.00">set_layout</text>
<text text-anchor="start" x="-383.441" y="-398.8" font-family="Times,serif" font-size="14.00">set_scope</text>
</g>
<!-- Dashboard::CoachUsersController -->
<g id="node8" class="node"><title>Dashboard::CoachUsersController</title>
<path fill="none" stroke="black" d="M-89.8105,-137C-89.8105,-137 95.8105,-137 95.8105,-137 101.811,-137 107.811,-143 107.811,-149 107.811,-149 107.811,-285 107.811,-285 107.811,-291 101.811,-297 95.8105,-297 95.8105,-297 -89.8105,-297 -89.8105,-297 -95.8105,-297 -101.811,-291 -101.811,-285 -101.811,-285 -101.811,-149 -101.811,-149 -101.811,-143 -95.8105,-137 -89.8105,-137"/>
<text text-anchor="middle" x="3" y="-281.8" font-family="Times,serif" font-size="14.00">Dashboard::CoachUsersController</text>
<polyline fill="none" stroke="black" points="-101.811,-275 107.811,-275 "/>
<text text-anchor="start" x="-93.8105" y="-259.8" font-family="Times,serif" font-size="14.00">create</text>
<text text-anchor="start" x="-93.8105" y="-245.8" font-family="Times,serif" font-size="14.00">index</text>
<text text-anchor="start" x="-93.8105" y="-231.8" font-family="Times,serif" font-size="14.00">new</text>
<text text-anchor="start" x="-93.8105" y="-217.8" font-family="Times,serif" font-size="14.00">update</text>
<polyline fill="none" stroke="black" points="-101.811,-211 107.811,-211 "/>
<polyline fill="none" stroke="black" points="-101.811,-187 107.811,-187 "/>
<text text-anchor="start" x="-93.8105" y="-171.8" font-family="Times,serif" font-size="14.00">_layout</text>
<text text-anchor="start" x="-93.8105" y="-157.8" font-family="Times,serif" font-size="14.00">coach_user_params</text>
<text text-anchor="start" x="-93.8105" y="-143.8" font-family="Times,serif" font-size="14.00">find_coach</text>
</g>
<!-- Dashboard::Customer::OrdersController -->
<g id="node9" class="node"><title>Dashboard::Customer::OrdersController</title>
<path fill="none" stroke="black" d="M147.855,135C147.855,135 366.145,135 366.145,135 372.145,135 378.145,129 378.145,123 378.145,123 378.145,-13 378.145,-13 378.145,-19 372.145,-25 366.145,-25 366.145,-25 147.855,-25 147.855,-25 141.855,-25 135.855,-19 135.855,-13 135.855,-13 135.855,123 135.855,123 135.855,129 141.855,135 147.855,135"/>
<text text-anchor="middle" x="257" y="-9.8" font-family="Times,serif" font-size="14.00">Dashboard::Customer::OrdersController</text>
<polyline fill="none" stroke="black" points="135.855,-3 378.145,-3 "/>
<text text-anchor="start" x="143.855" y="12.2" font-family="Times,serif" font-size="14.00">destroy</text>
<text text-anchor="start" x="143.855" y="26.2" font-family="Times,serif" font-size="14.00">index</text>
<text text-anchor="start" x="143.855" y="40.2" font-family="Times,serif" font-size="14.00">new</text>
<text text-anchor="start" x="143.855" y="54.2" font-family="Times,serif" font-size="14.00">pay</text>
<text text-anchor="start" x="143.855" y="68.2" font-family="Times,serif" font-size="14.00">show</text>
<text text-anchor="start" x="143.855" y="82.2" font-family="Times,serif" font-size="14.00">total</text>
<polyline fill="none" stroke="black" points="135.855,89 378.145,89 "/>
<polyline fill="none" stroke="black" points="135.855,113 378.145,113 "/>
<text text-anchor="start" x="143.855" y="128.2" font-family="Times,serif" font-size="14.00">_layout</text>
</g>
<!-- Dashboard::CustomersController -->
<g id="node10" class="node"><title>Dashboard::CustomersController</title>
<path fill="none" stroke="black" d="M-344.931,67C-344.931,67 -167.069,67 -167.069,67 -161.069,67 -155.069,61 -155.069,55 -155.069,55 -155.069,-25 -155.069,-25 -155.069,-31 -161.069,-37 -167.069,-37 -167.069,-37 -344.931,-37 -344.931,-37 -350.931,-37 -356.931,-31 -356.931,-25 -356.931,-25 -356.931,55 -356.931,55 -356.931,61 -350.931,67 -344.931,67"/>
<text text-anchor="middle" x="-256" y="-21.8" font-family="Times,serif" font-size="14.00">Dashboard::CustomersController</text>
<polyline fill="none" stroke="black" points="-356.931,-15 -155.069,-15 "/>
<text text-anchor="start" x="-348.931" y="0.2" font-family="Times,serif" font-size="14.00">index</text>
<polyline fill="none" stroke="black" points="-356.931,7 -155.069,7 "/>
<polyline fill="none" stroke="black" points="-356.931,31 -155.069,31 "/>
<text text-anchor="start" x="-348.931" y="46.2" font-family="Times,serif" font-size="14.00">_layout</text>
<text text-anchor="start" x="-348.931" y="60.2" font-family="Times,serif" font-size="14.00">find_customer</text>
</g>
<!-- Dashboard::EmploymentsController -->
<g id="node11" class="node"><title>Dashboard::EmploymentsController</title>
<path fill="none" stroke="black" d="M-21.8726,-324C-21.8726,-324 173.873,-324 173.873,-324 179.873,-324 185.873,-330 185.873,-336 185.873,-336 185.873,-430 185.873,-430 185.873,-436 179.873,-442 173.873,-442 173.873,-442 -21.8726,-442 -21.8726,-442 -27.8726,-442 -33.8726,-436 -33.8726,-430 -33.8726,-430 -33.8726,-336 -33.8726,-336 -33.8726,-330 -27.8726,-324 -21.8726,-324"/>
<text text-anchor="middle" x="76" y="-426.8" font-family="Times,serif" font-size="14.00">Dashboard::EmploymentsController</text>
<polyline fill="none" stroke="black" points="-33.8726,-420 185.873,-420 "/>
<text text-anchor="start" x="-25.8726" y="-404.8" font-family="Times,serif" font-size="14.00">create</text>
<text text-anchor="start" x="-25.8726" y="-390.8" font-family="Times,serif" font-size="14.00">destroy</text>
<text text-anchor="start" x="-25.8726" y="-376.8" font-family="Times,serif" font-size="14.00">index</text>
<polyline fill="none" stroke="black" points="-33.8726,-370 185.873,-370 "/>
<polyline fill="none" stroke="black" points="-33.8726,-346 185.873,-346 "/>
<text text-anchor="start" x="-25.8726" y="-330.8" font-family="Times,serif" font-size="14.00">_layout</text>
</g>
<!-- Dashboard::EventsController -->
<g id="node12" class="node"><title>Dashboard::EventsController</title>
<path fill="none" stroke="black" d="M-277.038,288C-277.038,288 -120.962,288 -120.962,288 -114.962,288 -108.962,282 -108.962,276 -108.962,276 -108.962,140 -108.962,140 -108.962,134 -114.962,128 -120.962,128 -120.962,128 -277.038,128 -277.038,128 -283.038,128 -289.038,134 -289.038,140 -289.038,140 -289.038,276 -289.038,276 -289.038,282 -283.038,288 -277.038,288"/>
<text text-anchor="middle" x="-199" y="143.2" font-family="Times,serif" font-size="14.00">Dashboard::EventsController</text>
<polyline fill="none" stroke="black" points="-289.038,150 -108.962,150 "/>
<text text-anchor="start" x="-281.038" y="165.2" font-family="Times,serif" font-size="14.00">create</text>
<text text-anchor="start" x="-281.038" y="179.2" font-family="Times,serif" font-size="14.00">index</text>
<text text-anchor="start" x="-281.038" y="193.2" font-family="Times,serif" font-size="14.00">show</text>
<polyline fill="none" stroke="black" points="-289.038,200 -108.962,200 "/>
<polyline fill="none" stroke="black" points="-289.038,224 -108.962,224 "/>
<text text-anchor="start" x="-281.038" y="239.2" font-family="Times,serif" font-size="14.00">_layout</text>
<text text-anchor="start" x="-281.038" y="253.2" font-family="Times,serif" font-size="14.00">current_products</text>
<text text-anchor="start" x="-281.038" y="267.2" font-family="Times,serif" font-size="14.00">event_params</text>
<text text-anchor="start" x="-281.038" y="281.2" font-family="Times,serif" font-size="14.00">find_event</text>
</g>
<!-- Dashboard::OrdersController -->
<g id="node13" class="node"><title>Dashboard::OrdersController</title>
<path fill="none" stroke="black" d="M419.965,135C419.965,135 576.035,135 576.035,135 582.035,135 588.035,129 588.035,123 588.035,123 588.035,29 588.035,29 588.035,23 582.035,17 576.035,17 576.035,17 419.965,17 419.965,17 413.965,17 407.965,23 407.965,29 407.965,29 407.965,123 407.965,123 407.965,129 413.965,135 419.965,135"/>
<text text-anchor="middle" x="498" y="32.2" font-family="Times,serif" font-size="14.00">Dashboard::OrdersController</text>
<polyline fill="none" stroke="black" points="407.965,39 588.035,39 "/>
<text text-anchor="start" x="415.965" y="54.2" font-family="Times,serif" font-size="14.00">index</text>
<text text-anchor="start" x="415.965" y="68.2" font-family="Times,serif" font-size="14.00">update</text>
<polyline fill="none" stroke="black" points="407.965,75 588.035,75 "/>
<polyline fill="none" stroke="black" points="407.965,99 588.035,99 "/>
<text text-anchor="start" x="415.965" y="114.2" font-family="Times,serif" font-size="14.00">_layout</text>
<text text-anchor="start" x="415.965" y="128.2" font-family="Times,serif" font-size="14.00">order_params</text>
</g>
<!-- Dashboard::PicturesController -->
<g id="node14" class="node"><title>Dashboard::PicturesController</title>
<path fill="none" stroke="black" d="M233.462,-222C233.462,-222 396.538,-222 396.538,-222 402.538,-222 408.538,-228 408.538,-234 408.538,-234 408.538,-384 408.538,-384 408.538,-390 402.538,-396 396.538,-396 396.538,-396 233.462,-396 233.462,-396 227.462,-396 221.462,-390 221.462,-384 221.462,-384 221.462,-234 221.462,-234 221.462,-228 227.462,-222 233.462,-222"/>
<text text-anchor="middle" x="315" y="-380.8" font-family="Times,serif" font-size="14.00">Dashboard::PicturesController</text>
<polyline fill="none" stroke="black" points="221.462,-374 408.538,-374 "/>
<text text-anchor="start" x="229.462" y="-358.8" font-family="Times,serif" font-size="14.00">create</text>
<text text-anchor="start" x="229.462" y="-344.8" font-family="Times,serif" font-size="14.00">destroy</text>
<text text-anchor="start" x="229.462" y="-330.8" font-family="Times,serif" font-size="14.00">index</text>
<text text-anchor="start" x="229.462" y="-316.8" font-family="Times,serif" font-size="14.00">update</text>
<polyline fill="none" stroke="black" points="221.462,-310 408.538,-310 "/>
<polyline fill="none" stroke="black" points="221.462,-286 408.538,-286 "/>
<text text-anchor="start" x="229.462" y="-270.8" font-family="Times,serif" font-size="14.00">_layout</text>
<text text-anchor="start" x="229.462" y="-256.8" font-family="Times,serif" font-size="14.00">find_imageable</text>
<text text-anchor="start" x="229.462" y="-242.8" font-family="Times,serif" font-size="14.00">find_picture</text>
<text text-anchor="start" x="229.462" y="-228.8" font-family="Times,serif" font-size="14.00">picture_params</text>
</g>
<!-- Dashboard::ProductsController -->
<g id="node15" class="node"><title>Dashboard::ProductsController</title>
<path fill="none" stroke="black" d="M11.5137,305C11.5137,305 178.486,305 178.486,305 184.486,305 190.486,299 190.486,293 190.486,293 190.486,185 190.486,185 190.486,179 184.486,173 178.486,173 178.486,173 11.5137,173 11.5137,173 5.51367,173 -0.486328,179 -0.486328,185 -0.486328,185 -0.486328,293 -0.486328,293 -0.486328,299 5.51367,305 11.5137,305"/>
<text text-anchor="middle" x="95" y="188.2" font-family="Times,serif" font-size="14.00">Dashboard::ProductsController</text>
<polyline fill="none" stroke="black" points="-0.486328,195 190.486,195 "/>
<text text-anchor="start" x="7.51367" y="210.2" font-family="Times,serif" font-size="14.00">edit</text>
<text text-anchor="start" x="7.51367" y="224.2" font-family="Times,serif" font-size="14.00">update</text>
<polyline fill="none" stroke="black" points="-0.486328,231 190.486,231 "/>
<polyline fill="none" stroke="black" points="-0.486328,255 190.486,255 "/>
<text text-anchor="start" x="7.51367" y="270.2" font-family="Times,serif" font-size="14.00">_layout</text>
<text text-anchor="start" x="7.51367" y="284.2" font-family="Times,serif" font-size="14.00">find_product</text>
<text text-anchor="start" x="7.51367" y="298.2" font-family="Times,serif" font-size="14.00">product_params</text>
</g>
<!-- Dashboard::SpecialPricesController -->
<g id="node16" class="node"><title>Dashboard::SpecialPricesController</title>
<path fill="none" stroke="black" d="M-106.697,101C-106.697,101 86.6968,101 86.6968,101 92.6968,101 98.6968,95 98.6968,89 98.6968,89 98.6968,-89 98.6968,-89 98.6968,-95 92.6968,-101 86.6968,-101 86.6968,-101 -106.697,-101 -106.697,-101 -112.697,-101 -118.697,-95 -118.697,-89 -118.697,-89 -118.697,89 -118.697,89 -118.697,95 -112.697,101 -106.697,101"/>
<text text-anchor="middle" x="-10" y="-85.8" font-family="Times,serif" font-size="14.00">Dashboard::SpecialPricesController</text>
<polyline fill="none" stroke="black" points="-118.697,-79 98.6968,-79 "/>
<text text-anchor="start" x="-110.697" y="-63.8" font-family="Times,serif" font-size="14.00">create</text>
<text text-anchor="start" x="-110.697" y="-49.8" font-family="Times,serif" font-size="14.00">destroy</text>
<text text-anchor="start" x="-110.697" y="-35.8" font-family="Times,serif" font-size="14.00">edit</text>
<text text-anchor="start" x="-110.697" y="-21.8" font-family="Times,serif" font-size="14.00">index</text>
<text text-anchor="start" x="-110.697" y="-7.8" font-family="Times,serif" font-size="14.00">new</text>
<text text-anchor="start" x="-110.697" y="6.2" font-family="Times,serif" font-size="14.00">show</text>
<text text-anchor="start" x="-110.697" y="20.2" font-family="Times,serif" font-size="14.00">update</text>
<polyline fill="none" stroke="black" points="-118.697,27 98.6968,27 "/>
<polyline fill="none" stroke="black" points="-118.697,51 98.6968,51 "/>
<text text-anchor="start" x="-110.697" y="66.2" font-family="Times,serif" font-size="14.00">_layout</text>
<text text-anchor="start" x="-110.697" y="80.2" font-family="Times,serif" font-size="14.00">set_special_price</text>
<text text-anchor="start" x="-110.697" y="94.2" font-family="Times,serif" font-size="14.00">special_price_params</text>
</g>
<!-- Dashboard::WithdrawalRequestsController -->
<g id="node17" class="node"><title>Dashboard::WithdrawalRequestsController</title>
<path fill="none" stroke="black" d="M147.973,-52C147.973,-52 382.027,-52 382.027,-52 388.027,-52 394.027,-58 394.027,-64 394.027,-64 394.027,-172 394.027,-172 394.027,-178 388.027,-184 382.027,-184 382.027,-184 147.973,-184 147.973,-184 141.973,-184 135.973,-178 135.973,-172 135.973,-172 135.973,-64 135.973,-64 135.973,-58 141.973,-52 147.973,-52"/>
<text text-anchor="middle" x="265" y="-168.8" font-family="Times,serif" font-size="14.00">Dashboard::WithdrawalRequestsController</text>
<polyline fill="none" stroke="black" points="135.973,-162 394.027,-162 "/>
<text text-anchor="start" x="143.973" y="-146.8" font-family="Times,serif" font-size="14.00">confirm</text>
<text text-anchor="start" x="143.973" y="-132.8" font-family="Times,serif" font-size="14.00">create</text>
<text text-anchor="start" x="143.973" y="-118.8" font-family="Times,serif" font-size="14.00">index</text>
<polyline fill="none" stroke="black" points="135.973,-112 394.027,-112 "/>
<polyline fill="none" stroke="black" points="135.973,-88 394.027,-88 "/>
<text text-anchor="start" x="143.973" y="-72.8" font-family="Times,serif" font-size="14.00">_layout</text>
<text text-anchor="start" x="143.973" y="-58.8" font-family="Times,serif" font-size="14.00">request_params</text>
</g>
<!-- DashboardController -->
<g id="node18" class="node"><title>DashboardController</title>
<path fill="none" stroke="black" d="M198.903,475C198.903,475 309.097,475 309.097,475 315.097,475 321.097,469 321.097,463 321.097,463 321.097,369 321.097,369 321.097,363 315.097,357 309.097,357 309.097,357 198.903,357 198.903,357 192.903,357 186.903,363 186.903,369 186.903,369 186.903,463 186.903,463 186.903,469 192.903,475 198.903,475"/>
<text text-anchor="middle" x="254" y="372.2" font-family="Times,serif" font-size="14.00">DashboardController</text>
<polyline fill="none" stroke="black" points="186.903,379 321.097,379 "/>
<text text-anchor="start" x="194.903" y="394.2" font-family="Times,serif" font-size="14.00">grid</text>
<text text-anchor="start" x="194.903" y="408.2" font-family="Times,serif" font-size="14.00">payment_settings</text>
<text text-anchor="start" x="194.903" y="422.2" font-family="Times,serif" font-size="14.00">show</text>
<polyline fill="none" stroke="black" points="186.903,429 321.097,429 "/>
<polyline fill="none" stroke="black" points="186.903,453 321.097,453 "/>
<text text-anchor="start" x="194.903" y="468.2" font-family="Times,serif" font-size="14.00">_layout</text>
</g>
<!-- DepositRequestsController -->
<g id="node19" class="node"><title>DepositRequestsController</title>
<path fill="none" stroke="black" d="M-310.824,-69C-310.824,-69 -167.176,-69 -167.176,-69 -161.176,-69 -155.176,-75 -155.176,-81 -155.176,-81 -155.176,-203 -155.176,-203 -155.176,-209 -161.176,-215 -167.176,-215 -167.176,-215 -310.824,-215 -310.824,-215 -316.824,-215 -322.824,-209 -322.824,-203 -322.824,-203 -322.824,-81 -322.824,-81 -322.824,-75 -316.824,-69 -310.824,-69"/>
<text text-anchor="middle" x="-239" y="-199.8" font-family="Times,serif" font-size="14.00">DepositRequestsController</text>
<polyline fill="none" stroke="black" points="-322.824,-193 -155.176,-193 "/>
<text text-anchor="start" x="-314.824" y="-177.8" font-family="Times,serif" font-size="14.00">create</text>
<text text-anchor="start" x="-314.824" y="-163.8" font-family="Times,serif" font-size="14.00">index</text>
<text text-anchor="start" x="-314.824" y="-149.8" font-family="Times,serif" font-size="14.00">new</text>
<text text-anchor="start" x="-314.824" y="-135.8" font-family="Times,serif" font-size="14.00">show</text>
<polyline fill="none" stroke="black" points="-322.824,-129 -155.176,-129 "/>
<polyline fill="none" stroke="black" points="-322.824,-105 -155.176,-105 "/>
<text text-anchor="start" x="-314.824" y="-89.8" font-family="Times,serif" font-size="14.00">_layout</text>
<text text-anchor="start" x="-314.824" y="-75.8" font-family="Times,serif" font-size="14.00">dr_params</text>
</g>
<!-- EventsController -->
<g id="node20" class="node"><title>EventsController</title>
<path fill="none" stroke="black" d="M-242.824,-256C-242.824,-256 -155.176,-256 -155.176,-256 -149.176,-256 -143.176,-262 -143.176,-268 -143.176,-268 -143.176,-474 -143.176,-474 -143.176,-480 -149.176,-486 -155.176,-486 -155.176,-486 -242.824,-486 -242.824,-486 -248.824,-486 -254.824,-480 -254.824,-474 -254.824,-474 -254.824,-268 -254.824,-268 -254.824,-262 -248.824,-256 -242.824,-256"/>
<text text-anchor="middle" x="-199" y="-470.8" font-family="Times,serif" font-size="14.00">EventsController</text>
<polyline fill="none" stroke="black" points="-254.824,-464 -143.176,-464 "/>
<text text-anchor="start" x="-246.824" y="-448.8" font-family="Times,serif" font-size="14.00">create</text>
<text text-anchor="start" x="-246.824" y="-434.8" font-family="Times,serif" font-size="14.00">destroy</text>
<text text-anchor="start" x="-246.824" y="-420.8" font-family="Times,serif" font-size="14.00">edit</text>
<text text-anchor="start" x="-246.824" y="-406.8" font-family="Times,serif" font-size="14.00">index</text>
<text text-anchor="start" x="-246.824" y="-392.8" font-family="Times,serif" font-size="14.00">parents_events</text>
<text text-anchor="start" x="-246.824" y="-378.8" font-family="Times,serif" font-size="14.00">private</text>
<text text-anchor="start" x="-246.824" y="-364.8" font-family="Times,serif" font-size="14.00">show</text>
<text text-anchor="start" x="-246.824" y="-350.8" font-family="Times,serif" font-size="14.00">update</text>
<polyline fill="none" stroke="black" points="-254.824,-344 -143.176,-344 "/>
<polyline fill="none" stroke="black" points="-254.824,-320 -143.176,-320 "/>
<text text-anchor="start" x="-246.824" y="-304.8" font-family="Times,serif" font-size="14.00">_layout</text>
<text text-anchor="start" x="-246.824" y="-290.8" font-family="Times,serif" font-size="14.00">current_products</text>
<text text-anchor="start" x="-246.824" y="-276.8" font-family="Times,serif" font-size="14.00">event_params</text>
<text text-anchor="start" x="-246.824" y="-262.8" font-family="Times,serif" font-size="14.00">find_event</text>
</g>
<!-- FeedbackController -->
<g id="node21" class="node"><title>FeedbackController</title>
<path fill="none" stroke="black" d="M-497.593,-18C-497.593,-18 -394.407,-18 -394.407,-18 -388.407,-18 -382.407,-24 -382.407,-30 -382.407,-30 -382.407,-96 -382.407,-96 -382.407,-102 -388.407,-108 -394.407,-108 -394.407,-108 -497.593,-108 -497.593,-108 -503.593,-108 -509.593,-102 -509.593,-96 -509.593,-96 -509.593,-30 -509.593,-30 -509.593,-24 -503.593,-18 -497.593,-18"/>
<text text-anchor="middle" x="-446" y="-92.8" font-family="Times,serif" font-size="14.00">FeedbackController</text>
<polyline fill="none" stroke="black" points="-509.593,-86 -382.407,-86 "/>
<text text-anchor="start" x="-501.593" y="-70.8" font-family="Times,serif" font-size="14.00">create</text>
<polyline fill="none" stroke="black" points="-509.593,-64 -382.407,-64 "/>
<polyline fill="none" stroke="black" points="-509.593,-40 -382.407,-40 "/>
<text text-anchor="start" x="-501.593" y="-24.8" font-family="Times,serif" font-size="14.00">_layout</text>
</g>
<!-- MyEventsController -->
<g id="node22" class="node"><title>MyEventsController</title>
<path fill="none" stroke="black" d="M437.452,-18C437.452,-18 544.548,-18 544.548,-18 550.548,-18 556.548,-24 556.548,-30 556.548,-30 556.548,-152 556.548,-152 556.548,-158 550.548,-164 544.548,-164 544.548,-164 437.452,-164 437.452,-164 431.452,-164 425.452,-158 425.452,-152 425.452,-152 425.452,-30 425.452,-30 425.452,-24 431.452,-18 437.452,-18"/>
<text text-anchor="middle" x="491" y="-148.8" font-family="Times,serif" font-size="14.00">MyEventsController</text>
<polyline fill="none" stroke="black" points="425.452,-142 556.548,-142 "/>
<text text-anchor="start" x="433.452" y="-126.8" font-family="Times,serif" font-size="14.00">bulk_process</text>
<text text-anchor="start" x="433.452" y="-112.8" font-family="Times,serif" font-size="14.00">destroy</text>
<text text-anchor="start" x="433.452" y="-98.8" font-family="Times,serif" font-size="14.00">grid</text>
<text text-anchor="start" x="433.452" y="-84.8" font-family="Times,serif" font-size="14.00">index</text>
<text text-anchor="start" x="433.452" y="-70.8" font-family="Times,serif" font-size="14.00">paid</text>
<polyline fill="none" stroke="black" points="425.452,-64 556.548,-64 "/>
<polyline fill="none" stroke="black" points="425.452,-40 556.548,-40 "/>
<text text-anchor="start" x="433.452" y="-24.8" font-family="Times,serif" font-size="14.00">_layout</text>
</g>
<!-- NestedResourcesController -->
<g id="node23" class="node"><title>NestedResourcesController</title>
<path fill="none" stroke="black" d="M437.021,271C437.021,271 582.979,271 582.979,271 588.979,271 594.979,265 594.979,259 594.979,259 594.979,179 594.979,179 594.979,173 588.979,167 582.979,167 582.979,167 437.021,167 437.021,167 431.021,167 425.021,173 425.021,179 425.021,179 425.021,259 425.021,259 425.021,265 431.021,271 437.021,271"/>
<text text-anchor="middle" x="510" y="182.2" font-family="Times,serif" font-size="14.00">NestedResourcesController</text>
<polyline fill="none" stroke="black" points="425.021,189 594.979,189 "/>
<text text-anchor="start" x="433.021" y="204.2" font-family="Times,serif" font-size="14.00">find_product</text>
<text text-anchor="start" x="433.021" y="218.2" font-family="Times,serif" font-size="14.00">set_layout</text>
<polyline fill="none" stroke="black" points="425.021,225 594.979,225 "/>
<polyline fill="none" stroke="black" points="425.021,249 594.979,249 "/>
<text text-anchor="start" x="433.021" y="264.2" font-family="Times,serif" font-size="14.00">_layout</text>
</g>
<!-- OrdersController -->
<g id="node24" class="node"><title>OrdersController</title>
<path fill="none" stroke="black" d="M-429.821,237C-429.821,237 -342.179,237 -342.179,237 -336.179,237 -330.179,231 -330.179,225 -330.179,225 -330.179,117 -330.179,117 -330.179,111 -336.179,105 -342.179,105 -342.179,105 -429.821,105 -429.821,105 -435.821,105 -441.821,111 -441.821,117 -441.821,117 -441.821,225 -441.821,225 -441.821,231 -435.821,237 -429.821,237"/>
<text text-anchor="middle" x="-386" y="120.2" font-family="Times,serif" font-size="14.00">OrdersController</text>
<polyline fill="none" stroke="black" points="-441.821,127 -330.179,127 "/>
<text text-anchor="start" x="-433.821" y="142.2" font-family="Times,serif" font-size="14.00">create</text>
<text text-anchor="start" x="-433.821" y="156.2" font-family="Times,serif" font-size="14.00">index</text>
<text text-anchor="start" x="-433.821" y="170.2" font-family="Times,serif" font-size="14.00">pay</text>
<text text-anchor="start" x="-433.821" y="184.2" font-family="Times,serif" font-size="14.00">show</text>
<polyline fill="none" stroke="black" points="-441.821,191 -330.179,191 "/>
<polyline fill="none" stroke="black" points="-441.821,215 -330.179,215 "/>
<text text-anchor="start" x="-433.821" y="230.2" font-family="Times,serif" font-size="14.00">_layout</text>
</g>
<!-- PaymentsController -->
<g id="node25" class="node"><title>PaymentsController</title>
<path fill="none" stroke="black" d="M436.91,-426C436.91,-426 575.09,-426 575.09,-426 581.09,-426 587.09,-432 587.09,-438 587.09,-438 587.09,-532 587.09,-532 587.09,-538 581.09,-544 575.09,-544 575.09,-544 436.91,-544 436.91,-544 430.91,-544 424.91,-538 424.91,-532 424.91,-532 424.91,-438 424.91,-438 424.91,-432 430.91,-426 436.91,-426"/>
<text text-anchor="middle" x="506" y="-528.8" font-family="Times,serif" font-size="14.00">PaymentsController</text>
<polyline fill="none" stroke="black" points="424.91,-522 587.09,-522 "/>
<text text-anchor="start" x="432.91" y="-506.8" font-family="Times,serif" font-size="14.00">failure</text>
<text text-anchor="start" x="432.91" y="-492.8" font-family="Times,serif" font-size="14.00">success</text>
<polyline fill="none" stroke="black" points="424.91,-486 587.09,-486 "/>
<polyline fill="none" stroke="black" points="424.91,-462 587.09,-462 "/>
<text text-anchor="start" x="432.91" y="-446.8" font-family="Times,serif" font-size="14.00">_layout</text>
<text text-anchor="start" x="432.91" y="-432.8" font-family="Times,serif" font-size="14.00">set_request_and_response</text>
</g>
<!-- PicturesController -->
<g id="node26" class="node"><title>PicturesController</title>
<path fill="none" stroke="black" d="M-175.324,-528C-175.324,-528 -80.6758,-528 -80.6758,-528 -74.6758,-528 -68.6758,-534 -68.6758,-540 -68.6758,-540 -68.6758,-622 -68.6758,-622 -68.6758,-628 -74.6758,-634 -80.6758,-634 -80.6758,-634 -175.324,-634 -175.324,-634 -181.324,-634 -187.324,-628 -187.324,-622 -187.324,-622 -187.324,-540 -187.324,-540 -187.324,-534 -181.324,-528 -175.324,-528"/>
<text text-anchor="middle" x="-128" y="-618.8" font-family="Times,serif" font-size="14.00">PicturesController</text>
<polyline fill="none" stroke="black" points="-187.324,-612 -68.6758,-612 "/>
<polyline fill="none" stroke="black" points="-187.324,-588 -68.6758,-588 "/>
<polyline fill="none" stroke="black" points="-187.324,-564 -68.6758,-564 "/>
<text text-anchor="start" x="-179.324" y="-548.8" font-family="Times,serif" font-size="14.00">_layout</text>
<text text-anchor="start" x="-179.324" y="-534.8" font-family="Times,serif" font-size="14.00">find_picture</text>
</g>
<!-- ProductsController -->
<g id="node27" class="node"><title>ProductsController</title>
<path fill="none" stroke="black" d="M130.728,-477C130.728,-477 229.272,-477 229.272,-477 235.272,-477 241.272,-483 241.272,-489 241.272,-489 241.272,-555 241.272,-555 241.272,-561 235.272,-567 229.272,-567 229.272,-567 130.728,-567 130.728,-567 124.728,-567 118.728,-561 118.728,-555 118.728,-555 118.728,-489 118.728,-489 118.728,-483 124.728,-477 130.728,-477"/>
<text text-anchor="middle" x="180" y="-551.8" font-family="Times,serif" font-size="14.00">ProductsController</text>
<polyline fill="none" stroke="black" points="118.728,-545 241.272,-545 "/>
<text text-anchor="start" x="126.728" y="-529.8" font-family="Times,serif" font-size="14.00">show</text>
<polyline fill="none" stroke="black" points="118.728,-523 241.272,-523 "/>
<polyline fill="none" stroke="black" points="118.728,-499 241.272,-499 "/>
<text text-anchor="start" x="126.728" y="-483.8" font-family="Times,serif" font-size="14.00">_layout</text>
</g>
<!-- ReviewsController -->
<g id="node28" class="node"><title>ReviewsController</title>
<path fill="none" stroke="black" d="M284.121,-426C284.121,-426 381.879,-426 381.879,-426 387.879,-426 393.879,-432 393.879,-438 393.879,-438 393.879,-546 393.879,-546 393.879,-552 387.879,-558 381.879,-558 381.879,-558 284.121,-558 284.121,-558 278.121,-558 272.121,-552 272.121,-546 272.121,-546 272.121,-438 272.121,-438 272.121,-432 278.121,-426 284.121,-426"/>
<text text-anchor="middle" x="333" y="-542.8" font-family="Times,serif" font-size="14.00">ReviewsController</text>
<polyline fill="none" stroke="black" points="272.121,-536 393.879,-536 "/>
<text text-anchor="start" x="280.121" y="-520.8" font-family="Times,serif" font-size="14.00">create</text>
<text text-anchor="start" x="280.121" y="-506.8" font-family="Times,serif" font-size="14.00">index</text>
<polyline fill="none" stroke="black" points="272.121,-500 393.879,-500 "/>
<polyline fill="none" stroke="black" points="272.121,-476 393.879,-476 "/>
<text text-anchor="start" x="280.121" y="-460.8" font-family="Times,serif" font-size="14.00">_layout</text>
<text text-anchor="start" x="280.121" y="-446.8" font-family="Times,serif" font-size="14.00">find_review</text>
<text text-anchor="start" x="280.121" y="-432.8" font-family="Times,serif" font-size="14.00">review_params</text>
</g>
<!-- SalesController -->
<g id="node29" class="node"><title>SalesController</title>
<path fill="none" stroke="black" d="M-497.548,509C-497.548,509 -418.452,509 -418.452,509 -412.452,509 -406.452,503 -406.452,497 -406.452,497 -406.452,431 -406.452,431 -406.452,425 -412.452,419 -418.452,419 -418.452,419 -497.548,419 -497.548,419 -503.548,419 -509.548,425 -509.548,431 -509.548,431 -509.548,497 -509.548,497 -509.548,503 -503.548,509 -497.548,509"/>
<text text-anchor="middle" x="-458" y="434.2" font-family="Times,serif" font-size="14.00">SalesController</text>
<polyline fill="none" stroke="black" points="-509.548,441 -406.452,441 "/>
<text text-anchor="start" x="-501.548" y="456.2" font-family="Times,serif" font-size="14.00">index</text>
<polyline fill="none" stroke="black" points="-509.548,463 -406.452,463 "/>
<polyline fill="none" stroke="black" points="-509.548,487 -406.452,487 "/>
<text text-anchor="start" x="-501.548" y="502.2" font-family="Times,serif" font-size="14.00">_layout</text>
</g>
<!-- StadiumsController -->
<g id="node30" class="node"><title>StadiumsController</title>
<path fill="none" stroke="black" d="M-140.831,441C-140.831,441 -39.1689,441 -39.1689,441 -33.1689,441 -27.1689,435 -27.1689,429 -27.1689,429 -27.1689,335 -27.1689,335 -27.1689,329 -33.1689,323 -39.1689,323 -39.1689,323 -140.831,323 -140.831,323 -146.831,323 -152.831,329 -152.831,335 -152.831,335 -152.831,429 -152.831,429 -152.831,435 -146.831,441 -140.831,441"/>
<text text-anchor="middle" x="-90" y="338.2" font-family="Times,serif" font-size="14.00">StadiumsController</text>
<polyline fill="none" stroke="black" points="-152.831,345 -27.1689,345 "/>
<text text-anchor="start" x="-144.831" y="360.2" font-family="Times,serif" font-size="14.00">index</text>
<text text-anchor="start" x="-144.831" y="374.2" font-family="Times,serif" font-size="14.00">show</text>
<polyline fill="none" stroke="black" points="-152.831,381 -27.1689,381 "/>
<polyline fill="none" stroke="black" points="-152.831,405 -27.1689,405 "/>
<text text-anchor="start" x="-144.831" y="420.2" font-family="Times,serif" font-size="14.00">_layout</text>
<text text-anchor="start" x="-144.831" y="434.2" font-family="Times,serif" font-size="14.00">set_stadium</text>
</g>
<!-- StaticPagesController -->
<g id="node31" class="node"><title>StaticPagesController</title>
<path fill="none" stroke="black" d="M-413.045,-273C-413.045,-273 -298.955,-273 -298.955,-273 -292.955,-273 -286.955,-279 -286.955,-285 -286.955,-285 -286.955,-351 -286.955,-351 -286.955,-357 -292.955,-363 -298.955,-363 -298.955,-363 -413.045,-363 -413.045,-363 -419.045,-363 -425.045,-357 -425.045,-351 -425.045,-351 -425.045,-285 -425.045,-285 -425.045,-279 -419.045,-273 -413.045,-273"/>
<text text-anchor="middle" x="-356" y="-347.8" font-family="Times,serif" font-size="14.00">StaticPagesController</text>
<polyline fill="none" stroke="black" points="-425.045,-341 -286.955,-341 "/>
<text text-anchor="start" x="-417.045" y="-325.8" font-family="Times,serif" font-size="14.00">show</text>
<polyline fill="none" stroke="black" points="-425.045,-319 -286.955,-319 "/>
<polyline fill="none" stroke="black" points="-425.045,-295 -286.955,-295 "/>
<text text-anchor="start" x="-417.045" y="-279.8" font-family="Times,serif" font-size="14.00">_layout</text>
</g>
<!-- VisitorsController -->
<g id="node32" class="node"><title>VisitorsController</title>
<path fill="none" stroke="black" d="M-463.524,-137C-463.524,-137 -370.476,-137 -370.476,-137 -364.476,-137 -358.476,-143 -358.476,-149 -358.476,-149 -358.476,-229 -358.476,-229 -358.476,-235 -364.476,-241 -370.476,-241 -370.476,-241 -463.524,-241 -463.524,-241 -469.524,-241 -475.524,-235 -475.524,-229 -475.524,-229 -475.524,-149 -475.524,-149 -475.524,-143 -469.524,-137 -463.524,-137"/>
<text text-anchor="middle" x="-417" y="-225.8" font-family="Times,serif" font-size="14.00">VisitorsController</text>
<polyline fill="none" stroke="black" points="-475.524,-219 -358.476,-219 "/>
<text text-anchor="start" x="-467.524" y="-203.8" font-family="Times,serif" font-size="14.00">index</text>
<polyline fill="none" stroke="black" points="-475.524,-197 -358.476,-197 "/>
<polyline fill="none" stroke="black" points="-475.524,-173 -358.476,-173 "/>
<text text-anchor="start" x="-467.524" y="-157.8" font-family="Times,serif" font-size="14.00">_layout</text>
<text text-anchor="start" x="-467.524" y="-143.8" font-family="Times,serif" font-size="14.00">set_markers</text>
</g>
</g>
</svg>
