<?xml version="1.0" encoding="UTF-8" standalone="no"?>
<!DOCTYPE svg PUBLIC "-//W3C//DTD SVG 1.1//EN"
 "http://www.w3.org/Graphics/SVG/1.1/DTD/svg11.dtd">
<!-- Generated by graphviz version 2.38.0 (20140413.2041)
 -->
<!-- Title: models_diagram Pages: 1 -->
<svg width="2819pt" height="688pt"
 viewBox="0.00 0.00 2819.22 688.00" xmlns="http://www.w3.org/2000/svg" xmlns:xlink="http://www.w3.org/1999/xlink">
<g id="graph0" class="graph" transform="scale(1 1) rotate(0) translate(4 684)">
<title>models_diagram</title>
<polygon fill="none" stroke="none" points="-4,4 -4,-684 2815.22,-684 2815.22,4 -4,4"/>
<!-- _diagram_info -->
<g id="node1" class="node"><title>_diagram_info</title>
<text text-anchor="start" x="8" y="-665.6" font-family="Times,serif" font-size="13.00">Models diagram</text>
<text text-anchor="start" x="8" y="-652.6" font-family="Times,serif" font-size="13.00">Date: Feb 21 2016 &#45; 13:09</text>
<text text-anchor="start" x="8" y="-639.6" font-family="Times,serif" font-size="13.00">Migration version: 20160219204852</text>
<text text-anchor="start" x="8" y="-626.6" font-family="Times,serif" font-size="13.00">Generated by RailRoady 1.4.1</text>
<text text-anchor="start" x="8" y="-613.6" font-family="Times,serif" font-size="13.00">http://railroady.prestonlee.com</text>
</g>
<!-- Ability -->
<g id="node2" class="node"><title>Ability</title>
<polygon fill="none" stroke="black" points="281.358,-661.5 226.018,-661.5 226.018,-625.5 281.358,-625.5 281.358,-661.5"/>
<text text-anchor="middle" x="253.688" y="-639.3" font-family="Times,serif" font-size="14.00">Ability</text>
</g>
<!-- Account -->
<g id="node3" class="node"><title>Account</title>
<ellipse fill="none" stroke="black" cx="339.688" cy="-643.5" rx="40.1317" ry="18"/>
<text text-anchor="middle" x="339.688" y="-639.3" font-family="Times,serif" font-size="14.00">Account</text>
</g>
<!-- AdditionalEventItem -->
<g id="node4" class="node"><title>AdditionalEventItem</title>
<ellipse fill="none" stroke="black" cx="1562.69" cy="-266" rx="84.5341" ry="18"/>
<text text-anchor="middle" x="1562.69" y="-261.8" font-family="Times,serif" font-size="14.00">AdditionalEventItem</text>
</g>
<!-- PaperTrail::Version -->
<g id="node40" class="node"><title>PaperTrail::Version</title>
<ellipse fill="none" stroke="black" cx="1525.69" cy="-18" rx="79.1078" ry="18"/>
<text text-anchor="middle" x="1525.69" y="-13.8" font-family="Times,serif" font-size="14.00">PaperTrail::Version</text>
</g>
<!-- AdditionalEventItem&#45;&gt;PaperTrail::Version -->
<g id="edge1" class="edge"><title>AdditionalEventItem&#45;&gt;PaperTrail::Version</title>
<path fill="none" stroke="#7382dd" d="M1571.77,-240.284C1585.31,-199.078 1606.01,-114.865 1574.69,-54 1572.24,-49.2418 1568.81,-44.9872 1564.89,-41.2249"/>
<ellipse fill="none" stroke="#7382dd" cx="1570.46" cy="-244.144" rx="4.00001" ry="4.00001"/>
<polygon fill="#7382dd" stroke="#7382dd" points="1564.58,-40.9703 1559.75,-31.1272 1560.73,-37.782 1556.88,-34.5937 1556.88,-34.5937 1556.88,-34.5937 1560.73,-37.782 1554.01,-38.0602 1564.58,-40.9703 1564.58,-40.9703"/>
<text text-anchor="middle" x="1614.02" y="-153.8" font-family="Times,serif" font-size="14.00">versions</text>
</g>
<!-- Admin -->
<g id="node5" class="node"><title>Admin</title>
<ellipse fill="none" stroke="black" cx="1914.69" cy="-479" rx="34.8458" ry="18"/>
<text text-anchor="middle" x="1914.69" y="-474.8" font-family="Times,serif" font-size="14.00">Admin</text>
</g>
<!-- Event -->
<g id="node19" class="node"><title>Event</title>
<ellipse fill="none" stroke="black" cx="1574.69" cy="-406" rx="30.9706" ry="18"/>
<text text-anchor="middle" x="1574.69" y="-401.8" font-family="Times,serif" font-size="14.00">Event</text>
</g>
<!-- Admin&#45;&gt;Event -->
<g id="edge4" class="edge"><title>Admin&#45;&gt;Event</title>
<path fill="none" stroke="#1cb0f3" d="M1874.92,-469.696C1809.13,-455.956 1678.43,-428.664 1613.36,-415.076"/>
<ellipse fill="none" stroke="#1cb0f3" cx="1879.09" cy="-470.567" rx="4.00001" ry="4.00001"/>
<polygon fill="#1cb0f3" stroke="#1cb0f3" points="1613.29,-415.061 1604.42,-408.612 1608.4,-414.039 1603.5,-413.017 1603.5,-413.017 1603.5,-413.017 1608.4,-414.039 1602.58,-417.422 1613.29,-415.061 1613.29,-415.061"/>
</g>
<!-- EventChange -->
<g id="node20" class="node"><title>EventChange</title>
<ellipse fill="none" stroke="black" cx="1875.69" cy="-104" rx="57.9979" ry="18"/>
<text text-anchor="middle" x="1875.69" y="-99.8" font-family="Times,serif" font-size="14.00">EventChange</text>
</g>
<!-- Admin&#45;&gt;EventChange -->
<g id="edge5" class="edge"><title>Admin&#45;&gt;EventChange</title>
<path fill="none" stroke="#3c5881" d="M1931.72,-453.136C1954.95,-417.547 1995.45,-349.164 2010.69,-284 2014.33,-268.42 2016.6,-262.869 2010.69,-248 2007.73,-240.564 1936.69,-167.309 1898.88,-128.639"/>
<polygon fill="#3c5881" stroke="#3c5881" points="1931.46,-453.53 1922.18,-459.38 1928.69,-457.698 1925.93,-461.866 1925.93,-461.866 1925.93,-461.866 1928.69,-457.698 1929.68,-464.352 1931.46,-453.53 1931.46,-453.53"/>
<polygon fill="#3c5881" stroke="#3c5881" points="1898.78,-128.543 1895,-118.248 1895.29,-124.969 1891.79,-121.396 1891.79,-121.396 1891.79,-121.396 1895.29,-124.969 1888.57,-124.543 1898.78,-128.543 1898.78,-128.543"/>
</g>
<!-- Order -->
<g id="node23" class="node"><title>Order</title>
<ellipse fill="none" stroke="black" cx="1737.69" cy="-212" rx="30.9619" ry="18"/>
<text text-anchor="middle" x="1737.69" y="-207.8" font-family="Times,serif" font-size="14.00">Order</text>
</g>
<!-- Admin&#45;&gt;Order -->
<g id="edge3" class="edge"><title>Admin&#45;&gt;Order</title>
<path fill="none" stroke="#1012d7" d="M1904.42,-453.585C1903.09,-450.062 1901.8,-446.458 1900.69,-443 1873.38,-358.026 1915.36,-311.547 1852.69,-248 1830.43,-225.435 1813.92,-239.505 1783.69,-230 1780.06,-228.861 1776.3,-227.602 1772.57,-226.3"/>
<ellipse fill="none" stroke="#1012d7" cx="1905.91" cy="-457.361" rx="4.00001" ry="4.00001"/>
<polygon fill="#1012d7" stroke="#1012d7" points="1772.25,-226.186 1764.36,-218.57 1767.55,-224.496 1762.84,-222.806 1762.84,-222.806 1762.84,-222.806 1767.55,-224.496 1761.32,-227.041 1772.25,-226.186 1772.25,-226.186"/>
</g>
<!-- Wallet -->
<g id="node36" class="node"><title>Wallet</title>
<ellipse fill="none" stroke="black" cx="2254.69" cy="-406" rx="32.9423" ry="18"/>
<text text-anchor="middle" x="2254.69" y="-401.8" font-family="Times,serif" font-size="14.00">Wallet</text>
</g>
<!-- Admin&#45;&gt;Wallet -->
<g id="edge6" class="edge"><title>Admin&#45;&gt;Wallet</title>
<path fill="none" stroke="#29eafb" d="M1954.39,-469.709C2020.32,-455.941 2151.55,-428.539 2216.48,-414.979"/>
<ellipse fill="none" stroke="#29eafb" cx="1950.28" cy="-470.567" rx="4.00001" ry="4.00001"/>
<ellipse fill="#29eafb" stroke="#29eafb" cx="2220.52" cy="-414.136" rx="4.00001" ry="4.00001"/>
</g>
<!-- Admin&#45;&gt;PaperTrail::Version -->
<g id="edge2" class="edge"><title>Admin&#45;&gt;PaperTrail::Version</title>
<path fill="none" stroke="#2383aa" d="M1917.1,-452.692C1920.11,-407.654 1920.51,-312.294 1878.69,-248 1824.19,-164.211 1807.05,-139.606 1722.69,-86 1682.77,-60.6382 1632.17,-43.6948 1592.24,-33.1919"/>
<ellipse fill="none" stroke="#2383aa" cx="1916.8" cy="-456.763" rx="4" ry="4"/>
<polygon fill="#2383aa" stroke="#2383aa" points="1592.02,-33.136 1583.45,-26.2994 1587.18,-31.8976 1582.33,-30.6592 1582.33,-30.6592 1582.33,-30.6592 1587.18,-31.8976 1581.22,-35.019 1592.02,-33.136 1592.02,-33.136"/>
<text text-anchor="middle" x="1920.02" y="-261.8" font-family="Times,serif" font-size="14.00">versions</text>
</g>
<!-- AdminWallet -->
<g id="node6" class="node"><title>AdminWallet</title>
<polygon fill="none" stroke="black" points="2005.27,-661.5 1914.1,-661.5 1914.1,-625.5 2005.27,-625.5 2005.27,-661.5"/>
<text text-anchor="middle" x="1959.69" y="-639.3" font-family="Times,serif" font-size="14.00">AdminWallet</text>
</g>
<!-- Category -->
<g id="node7" class="node"><title>Category</title>
<ellipse fill="none" stroke="black" cx="440.688" cy="-643.5" rx="42.5456" ry="18"/>
<text text-anchor="middle" x="440.688" y="-639.3" font-family="Times,serif" font-size="14.00">Category</text>
</g>
<!-- Stadium -->
<g id="node32" class="node"><title>Stadium</title>
<ellipse fill="none" stroke="black" cx="1243.69" cy="-552" rx="39.6731" ry="18"/>
<text text-anchor="middle" x="1243.69" y="-547.8" font-family="Times,serif" font-size="14.00">Stadium</text>
</g>
<!-- Category&#45;&gt;Stadium -->
<g id="edge8" class="edge"><title>Category&#45;&gt;Stadium</title>
<path fill="none" stroke="#81a09a" d="M489.357,-637.075C632.762,-621.092 1052.57,-574.301 1195.44,-558.378"/>
<ellipse fill="none" stroke="#81a09a" cx="485.311" cy="-637.526" rx="4.00001" ry="4.00001"/>
<polygon fill="#81a09a" stroke="#81a09a" points="1195.69,-558.349 1206.13,-561.714 1200.66,-557.795 1205.63,-557.241 1205.63,-557.241 1205.63,-557.241 1200.66,-557.795 1205.13,-552.769 1195.69,-558.349 1195.69,-558.349"/>
</g>
<!-- Category&#45;&gt;PaperTrail::Version -->
<g id="edge7" class="edge"><title>Category&#45;&gt;PaperTrail::Version</title>
<path fill="none" stroke="#57a3bb" d="M432.868,-617.393C428.011,-599.6 422.688,-575.065 422.688,-553 422.688,-553 422.688,-553 422.688,-103 422.688,-57.4558 468.752,-65.9967 512.688,-54 600.349,-30.0642 1206.03,-21.9683 1436.72,-19.7339"/>
<ellipse fill="none" stroke="#57a3bb" cx="434.094" cy="-621.699" rx="4.00001" ry="4.00001"/>
<polygon fill="#57a3bb" stroke="#57a3bb" points="1436.76,-19.7336 1446.8,-24.1379 1441.76,-19.6859 1446.76,-19.6381 1446.76,-19.6381 1446.76,-19.6381 1441.76,-19.6859 1446.72,-15.1383 1436.76,-19.7336 1436.76,-19.7336"/>
<text text-anchor="middle" x="446.019" y="-358.8" font-family="Times,serif" font-size="14.00">versions</text>
</g>
<!-- Coach -->
<g id="node8" class="node"><title>Coach</title>
<ellipse fill="none" stroke="black" cx="850.688" cy="-552" rx="32.8994" ry="18"/>
<text text-anchor="middle" x="850.688" y="-547.8" font-family="Times,serif" font-size="14.00">Coach</text>
</g>
<!-- CoachesArea -->
<g id="node10" class="node"><title>CoachesArea</title>
<ellipse fill="none" stroke="black" cx="623.688" cy="-406" rx="60.4202" ry="18"/>
<text text-anchor="middle" x="623.688" y="-401.8" font-family="Times,serif" font-size="14.00">CoachesArea</text>
</g>
<!-- Coach&#45;&gt;CoachesArea -->
<g id="edge17" class="edge"><title>Coach&#45;&gt;CoachesArea</title>
<path fill="none" stroke="#42e3d8" d="M810.028,-549.744C777.177,-546.947 731.075,-538.823 697.688,-516 667.683,-495.489 646.415,-458.443 634.599,-433.293"/>
<ellipse fill="none" stroke="#42e3d8" cx="814.09" cy="-550.047" rx="4" ry="4"/>
<polygon fill="#42e3d8" stroke="#42e3d8" points="634.507,-433.088 634.497,-422.123 632.451,-428.531 630.395,-423.973 630.395,-423.973 630.395,-423.973 632.451,-428.531 626.293,-425.823 634.507,-433.088 634.507,-433.088"/>
</g>
<!-- Area -->
<g id="node11" class="node"><title>Area</title>
<ellipse fill="none" stroke="black" cx="1015.69" cy="-479" rx="30.0035" ry="18"/>
<text text-anchor="middle" x="1015.69" y="-474.8" font-family="Times,serif" font-size="14.00">Area</text>
</g>
<!-- Coach&#45;&gt;Area -->
<g id="edge18" class="edge"><title>Coach&#45;&gt;Area</title>
<path fill="none" stroke="#bec6b2" d="M885.143,-536.174C913.694,-523.888 954.027,-506.533 982.283,-494.374"/>
<polygon fill="#bec6b2" stroke="#bec6b2" points="884.933,-536.264 873.969,-536.083 880.341,-538.24 875.748,-540.217 875.748,-540.217 875.748,-540.217 880.341,-538.24 877.526,-544.35 884.933,-536.264 884.933,-536.264"/>
<polygon fill="#bec6b2" stroke="#bec6b2" points="982.55,-494.259 993.514,-494.44 987.142,-492.283 991.735,-490.307 991.735,-490.307 991.735,-490.307 987.142,-492.283 989.957,-486.173 982.55,-494.259 982.55,-494.259"/>
</g>
<!-- Coach&#45;&gt;Event -->
<g id="edge13" class="edge"><title>Coach&#45;&gt;Event</title>
<path fill="none" stroke="#70531c" d="M893.01,-547.29C948.214,-542.095 1047.67,-531.514 1131.69,-516 1284,-487.877 1462.11,-439.117 1537.73,-417.658"/>
<polygon fill="#70531c" stroke="#70531c" points="892.861,-547.304 882.488,-543.747 887.882,-547.766 882.903,-548.228 882.903,-548.228 882.903,-548.228 887.882,-547.766 883.319,-552.708 892.861,-547.304 892.861,-547.304"/>
<polygon fill="#70531c" stroke="#70531c" points="1538.09,-417.556 1548.94,-419.144 1542.9,-416.186 1547.71,-414.816 1547.71,-414.816 1547.71,-414.816 1542.9,-416.186 1546.47,-410.488 1538.09,-417.556 1538.09,-417.556"/>
</g>
<!-- Coach&#45;&gt;Order -->
<g id="edge14" class="edge"><title>Coach&#45;&gt;Order</title>
<path fill="none" stroke="#4984eb" d="M893.069,-547.533C974.923,-540.513 1160.32,-523.039 1314.69,-497 1333.15,-493.886 1629.19,-435.845 1643.69,-424 1701.91,-376.434 1725.27,-285.38 1733.6,-240.04"/>
<polygon fill="#4984eb" stroke="#4984eb" points="892.877,-547.549 882.532,-543.912 887.895,-547.972 882.913,-548.395 882.913,-548.395 882.913,-548.395 887.895,-547.972 883.294,-552.879 892.877,-547.549 892.877,-547.549"/>
<polygon fill="#4984eb" stroke="#4984eb" points="1733.62,-239.916 1739.76,-230.829 1734.48,-234.989 1735.33,-230.062 1735.33,-230.062 1735.33,-230.062 1734.48,-234.989 1730.89,-229.296 1733.62,-239.916 1733.62,-239.916"/>
</g>
<!-- Picture -->
<g id="node26" class="node"><title>Picture</title>
<ellipse fill="none" stroke="black" cx="1052.69" cy="-212" rx="35.3129" ry="18"/>
<text text-anchor="middle" x="1052.69" y="-207.8" font-family="Times,serif" font-size="14.00">Picture</text>
</g>
<!-- Coach&#45;&gt;Picture -->
<g id="edge10" class="edge"><title>Coach&#45;&gt;Picture</title>
<path fill="none" stroke="#638061" d="M864.248,-527.43C874.716,-509.259 889.578,-483.514 902.688,-461 957.922,-366.146 967.95,-340.085 1027.69,-248 1029.91,-244.574 1032.32,-241.015 1034.75,-237.535"/>
<ellipse fill="none" stroke="#638061" cx="862.045" cy="-531.256" rx="4.00002" ry="4.00002"/>
<polygon fill="#638061" stroke="#638061" points="1034.89,-237.328 1044.35,-231.775 1037.79,-233.25 1040.68,-229.172 1040.68,-229.172 1040.68,-229.172 1037.79,-233.25 1037.01,-226.568 1034.89,-237.328 1034.89,-237.328"/>
</g>
<!-- ProductService -->
<g id="node28" class="node"><title>ProductService</title>
<ellipse fill="none" stroke="black" cx="1261.69" cy="-212" rx="64.27" ry="18"/>
<text text-anchor="middle" x="1261.69" y="-207.8" font-family="Times,serif" font-size="14.00">ProductService</text>
</g>
<!-- Coach&#45;&gt;ProductService -->
<g id="edge15" class="edge"><title>Coach&#45;&gt;ProductService</title>
<path fill="none" stroke="#d188da" d="M890.53,-546.611C949.517,-539.333 1056.1,-522.944 1083.69,-497 1156.66,-428.384 1141.96,-385.895 1196.69,-302 1211.24,-279.69 1229.19,-255.324 1242.54,-237.736"/>
<ellipse fill="none" stroke="#d188da" cx="886.507" cy="-547.098" rx="4.00001" ry="4.00001"/>
<polygon fill="#d188da" stroke="#d188da" points="1242.61,-237.634 1252.26,-232.417 1245.65,-233.66 1248.68,-229.686 1248.68,-229.686 1248.68,-229.686 1245.65,-233.66 1245.11,-226.955 1242.61,-237.634 1242.61,-237.634"/>
</g>
<!-- Review -->
<g id="node29" class="node"><title>Review</title>
<ellipse fill="none" stroke="black" cx="939.688" cy="-212" rx="37.2421" ry="18"/>
<text text-anchor="middle" x="939.688" y="-207.8" font-family="Times,serif" font-size="14.00">Review</text>
</g>
<!-- Coach&#45;&gt;Review -->
<g id="edge11" class="edge"><title>Coach&#45;&gt;Review</title>
<path fill="none" stroke="#fe80ca" d="M817.493,-536.877C801.134,-528.009 782.965,-514.838 773.688,-497 762.408,-475.313 767.27,-465.587 773.688,-442 799.942,-345.501 819.167,-320.844 887.688,-248 893.35,-241.981 900.228,-236.453 907.103,-231.654"/>
<ellipse fill="none" stroke="#fe80ca" cx="821.285" cy="-538.823" rx="4.00002" ry="4.00002"/>
<polygon fill="#fe80ca" stroke="#fe80ca" points="907.365,-231.482 918.192,-229.743 911.541,-228.733 915.718,-225.985 915.718,-225.985 915.718,-225.985 911.541,-228.733 913.244,-222.226 907.365,-231.482 907.365,-231.482"/>
</g>
<!-- Service -->
<g id="node30" class="node"><title>Service</title>
<ellipse fill="none" stroke="black" cx="1142.69" cy="-212" rx="36.7489" ry="18"/>
<text text-anchor="middle" x="1142.69" y="-207.8" font-family="Times,serif" font-size="14.00">Service</text>
</g>
<!-- Coach&#45;&gt;Service -->
<g id="edge16" class="edge"><title>Coach&#45;&gt;Service</title>
<path fill="none" stroke="#846ffd" d="M893.815,-551.213C939.617,-549.081 1011.27,-538.644 1054.69,-497 1127.85,-426.823 1140.55,-297.161 1142.5,-240.596"/>
<polygon fill="#846ffd" stroke="#846ffd" points="893.602,-551.22 883.451,-547.073 888.605,-551.395 883.608,-551.57 883.608,-551.57 883.608,-551.57 888.605,-551.395 883.766,-556.068 893.602,-551.22 893.602,-551.22"/>
<polygon fill="#846ffd" stroke="#846ffd" points="1142.5,-240.294 1147.26,-230.411 1142.63,-235.296 1142.76,-230.297 1142.76,-230.297 1142.76,-230.297 1142.63,-235.296 1138.26,-230.183 1142.5,-240.294 1142.5,-240.294"/>
</g>
<!-- SpecialPrice -->
<g id="node31" class="node"><title>SpecialPrice</title>
<ellipse fill="none" stroke="black" cx="820.688" cy="-212" rx="54.1144" ry="18"/>
<text text-anchor="middle" x="820.688" y="-207.8" font-family="Times,serif" font-size="14.00">SpecialPrice</text>
</g>
<!-- Coach&#45;&gt;SpecialPrice -->
<g id="edge12" class="edge"><title>Coach&#45;&gt;SpecialPrice</title>
<path fill="none" stroke="#551585" d="M809.854,-550.187C784.102,-547.289 752.616,-538.847 735.688,-516 663.785,-418.957 712.566,-347.734 780.688,-248 783.669,-243.635 787.319,-239.472 791.189,-235.637"/>
<ellipse fill="none" stroke="#551585" cx="814.004" cy="-550.574" rx="4" ry="4"/>
<polygon fill="#551585" stroke="#551585" points="791.398,-235.446 801.818,-232.027 795.091,-232.075 798.784,-228.704 798.784,-228.704 798.784,-228.704 795.091,-232.075 795.75,-225.38 791.398,-235.446 791.398,-235.446"/>
</g>
<!-- Coach&#45;&gt;PaperTrail::Version -->
<g id="edge9" class="edge"><title>Coach&#45;&gt;PaperTrail::Version</title>
<path fill="none" stroke="#0cc090" d="M810.649,-546.801C767.67,-540.888 698.585,-527.231 646.688,-497 601.585,-470.727 577.393,-471 554.688,-424 534.775,-382.78 554.688,-366.778 554.688,-321 554.688,-321 554.688,-321 554.688,-103 554.688,-55.8868 603.161,-66.1213 648.688,-54 723.262,-34.1453 1228.99,-23.7967 1436.8,-20.3424"/>
<ellipse fill="none" stroke="#0cc090" cx="814.656" cy="-547.328" rx="4.00001" ry="4.00001"/>
<polygon fill="#0cc090" stroke="#0cc090" points="1437.07,-20.3381 1447.14,-24.6727 1442.07,-20.2557 1447.07,-20.1733 1447.07,-20.1733 1447.07,-20.1733 1442.07,-20.2557 1447,-15.6739 1437.07,-20.3381 1437.07,-20.3381"/>
<text text-anchor="middle" x="578.019" y="-315.8" font-family="Times,serif" font-size="14.00">versions</text>
</g>
<!-- CoachUser -->
<g id="node9" class="node"><title>CoachUser</title>
<ellipse fill="none" stroke="black" cx="1649.69" cy="-643.5" rx="49.2946" ry="18"/>
<text text-anchor="middle" x="1649.69" y="-639.3" font-family="Times,serif" font-size="14.00">CoachUser</text>
</g>
<!-- CoachUser&#45;&gt;Coach -->
<g id="edge24" class="edge"><title>CoachUser&#45;&gt;Coach</title>
<path fill="none" stroke="#3999e8" d="M1595.27,-636.404C1444.31,-619.495 1022.72,-572.27 890.726,-557.485"/>
<ellipse fill="none" stroke="#3999e8" cx="1599.3" cy="-636.856" rx="4.00001" ry="4.00001"/>
<ellipse fill="#3999e8" stroke="#3999e8" cx="886.431" cy="-557.004" rx="4.00001" ry="4.00001"/>
</g>
<!-- CoachUser&#45;&gt;Event -->
<g id="edge21" class="edge"><title>CoachUser&#45;&gt;Event</title>
<path fill="none" stroke="#af3986" d="M1641.83,-617.816C1627.59,-573.123 1597.68,-479.189 1583.07,-433.323"/>
<ellipse fill="none" stroke="#af3986" cx="1643.08" cy="-621.752" rx="4.00001" ry="4.00001"/>
<polygon fill="#af3986" stroke="#af3986" points="1583.07,-433.312 1584.32,-422.418 1581.55,-428.547 1580.03,-423.783 1580.03,-423.783 1580.03,-423.783 1581.55,-428.547 1575.74,-425.149 1583.07,-433.312 1583.07,-433.312"/>
</g>
<!-- CoachUser&#45;&gt;EventChange -->
<g id="edge22" class="edge"><title>CoachUser&#45;&gt;EventChange</title>
<path fill="none" stroke="#5e61b0" d="M1693.53,-626.71C1769.5,-598.586 1921.1,-538.847 1958.69,-497 2035.27,-411.744 2056.73,-358.319 2025.69,-248 2009.14,-189.2 1989.35,-176.923 1940.69,-140 1933.11,-134.254 1924.47,-128.899 1916.02,-124.192"/>
<polygon fill="#5e61b0" stroke="#5e61b0" points="1693.16,-626.848 1682.22,-626.08 1688.46,-628.576 1683.77,-630.303 1683.77,-630.303 1683.77,-630.303 1688.46,-628.576 1685.33,-634.526 1693.16,-626.848 1693.16,-626.848"/>
<polygon fill="#5e61b0" stroke="#5e61b0" points="1915.79,-124.07 1909.1,-115.382 1911.39,-121.71 1906.98,-119.349 1906.98,-119.349 1906.98,-119.349 1911.39,-121.71 1904.85,-123.316 1915.79,-124.07 1915.79,-124.07"/>
</g>
<!-- CoachUser&#45;&gt;Order -->
<g id="edge20" class="edge"><title>CoachUser&#45;&gt;Order</title>
<path fill="none" stroke="#a56291" d="M1660.14,-617.834C1681.2,-566.749 1728.29,-445.186 1746.69,-338 1753.45,-298.567 1754.76,-287.547 1748.69,-248 1748.27,-245.261 1747.67,-242.443 1746.97,-239.651"/>
<ellipse fill="none" stroke="#a56291" cx="1658.53" cy="-621.72" rx="4.00001" ry="4.00001"/>
<polygon fill="#a56291" stroke="#a56291" points="1746.91,-239.445 1748.44,-228.586 1745.52,-234.644 1744.12,-229.843 1744.12,-229.843 1744.12,-229.843 1745.52,-234.644 1739.8,-231.1 1746.91,-239.445 1746.91,-239.445"/>
</g>
<!-- Product -->
<g id="node27" class="node"><title>Product</title>
<ellipse fill="none" stroke="black" cx="1309.69" cy="-320" rx="37.7352" ry="18"/>
<text text-anchor="middle" x="1309.69" y="-315.8" font-family="Times,serif" font-size="14.00">Product</text>
</g>
<!-- CoachUser&#45;&gt;Product -->
<g id="edge25" class="edge"><title>CoachUser&#45;&gt;Product</title>
<path fill="none" stroke="#d9a8ba" d="M1608.7,-627.024C1538.95,-598.417 1398,-530.305 1328.69,-424 1313.52,-400.737 1309.69,-368.571 1309.06,-346.405"/>
<ellipse fill="none" stroke="#d9a8ba" cx="1612.73" cy="-628.656" rx="4.00001" ry="4.00001"/>
<ellipse fill="#d9a8ba" stroke="#d9a8ba" cx="1309.01" cy="-342.15" rx="4" ry="4"/>
</g>
<!-- CoachUser&#45;&gt;Wallet -->
<g id="edge23" class="edge"><title>CoachUser&#45;&gt;Wallet</title>
<path fill="none" stroke="#0a44e3" d="M1694.61,-629.357C1718.37,-622.504 1748.05,-614.095 1774.69,-607 1970.3,-554.896 2062.85,-628.586 2216.69,-497 2235.95,-480.528 2245.67,-452.625 2250.43,-432.246"/>
<ellipse fill="none" stroke="#0a44e3" cx="1690.64" cy="-630.506" rx="4.00001" ry="4.00001"/>
<ellipse fill="#0a44e3" stroke="#0a44e3" cx="2251.29" cy="-428.213" rx="4.00001" ry="4.00001"/>
</g>
<!-- CoachUser&#45;&gt;PaperTrail::Version -->
<g id="edge19" class="edge"><title>CoachUser&#45;&gt;PaperTrail::Version</title>
<path fill="none" stroke="#2e1d7a" d="M1592.31,-641.101C1358.84,-635.037 492.688,-608.781 492.688,-553 492.688,-553 492.688,-553 492.688,-103 492.688,-60.5445 533.977,-66.0469 574.688,-54 655.782,-30.0031 1215.5,-22.0028 1436.36,-19.7613"/>
<ellipse fill="none" stroke="#2e1d7a" cx="1596.34" cy="-641.205" rx="4" ry="4"/>
<polygon fill="#2e1d7a" stroke="#2e1d7a" points="1436.61,-19.7588 1446.66,-24.1587 1441.61,-19.7089 1446.61,-19.6589 1446.61,-19.6589 1446.61,-19.6589 1441.61,-19.7089 1446.57,-15.1591 1436.61,-19.7588 1436.61,-19.7588"/>
<text text-anchor="middle" x="516.019" y="-358.8" font-family="Times,serif" font-size="14.00">versions</text>
</g>
<!-- CoachesArea&#45;&gt;PaperTrail::Version -->
<g id="edge26" class="edge"><title>CoachesArea&#45;&gt;PaperTrail::Version</title>
<path fill="none" stroke="#790bfd" d="M626.428,-379.818C628.009,-363.149 629.688,-340.796 629.688,-321 629.688,-321 629.688,-321 629.688,-103 629.688,-68.2252 658.134,-66.2279 690.688,-54 758.984,-28.3465 1235.37,-21.3987 1436.46,-19.5989"/>
<ellipse fill="none" stroke="#790bfd" cx="626.014" cy="-383.992" rx="4" ry="4"/>
<polygon fill="#790bfd" stroke="#790bfd" points="1436.69,-19.5969 1446.73,-24.0094 1441.69,-19.5533 1446.69,-19.5096 1446.69,-19.5096 1446.69,-19.5096 1441.69,-19.5533 1446.65,-15.0098 1436.69,-19.5969 1436.69,-19.5969"/>
<text text-anchor="middle" x="653.019" y="-207.8" font-family="Times,serif" font-size="14.00">versions</text>
</g>
<!-- Area&#45;&gt;CoachesArea -->
<g id="edge35" class="edge"><title>Area&#45;&gt;CoachesArea</title>
<path fill="none" stroke="#644205" d="M978.999,-471.355C911.227,-459.08 765.844,-432.748 683.597,-417.851"/>
<ellipse fill="none" stroke="#644205" cx="983.244" cy="-472.124" rx="4.00001" ry="4.00001"/>
<polygon fill="#644205" stroke="#644205" points="683.485,-417.831 674.447,-411.62 678.565,-416.94 673.645,-416.048 673.645,-416.048 673.645,-416.048 678.565,-416.94 672.843,-420.476 683.485,-417.831 683.485,-417.831"/>
</g>
<!-- Area&#45;&gt;Event -->
<g id="edge31" class="edge"><title>Area&#45;&gt;Event</title>
<path fill="none" stroke="#0d3c02" d="M1053.93,-469.725C1092.37,-461.66 1153.4,-449.54 1206.69,-442 1324.91,-425.272 1465.66,-414.373 1533.75,-409.665"/>
<polygon fill="#0d3c02" stroke="#0d3c02" points="1053.49,-469.817 1042.78,-467.483 1048.6,-470.851 1043.71,-471.885 1043.71,-471.885 1043.71,-471.885 1048.6,-470.851 1044.64,-476.288 1053.49,-469.817 1053.49,-469.817"/>
<polygon fill="#0d3c02" stroke="#0d3c02" points="1534.07,-409.644 1544.35,-413.452 1539.06,-409.303 1544.04,-408.963 1544.04,-408.963 1544.04,-408.963 1539.06,-409.303 1543.74,-404.473 1534.07,-409.644 1534.07,-409.644"/>
</g>
<!-- Area&#45;&gt;Order -->
<g id="edge32" class="edge"><title>Area&#45;&gt;Order</title>
<path fill="none" stroke="#08d5af" d="M1055.96,-476.663C1182.89,-472.136 1568.96,-455.856 1614.69,-424 1663.95,-389.682 1645.59,-355.574 1672.69,-302 1684.98,-277.691 1685.28,-269.75 1701.69,-248 1705.16,-243.389 1709.25,-238.821 1713.4,-234.582"/>
<polygon fill="#08d5af" stroke="#08d5af" points="1055.87,-476.666 1045.72,-472.52 1050.88,-476.842 1045.88,-477.017 1045.88,-477.017 1045.88,-477.017 1050.88,-476.842 1046.04,-481.514 1055.87,-476.666 1055.87,-476.666"/>
<polygon fill="#08d5af" stroke="#08d5af" points="1713.65,-234.34 1723.96,-230.596 1717.24,-230.854 1720.82,-227.369 1720.82,-227.369 1720.82,-227.369 1717.24,-230.854 1717.69,-224.142 1713.65,-234.34 1713.65,-234.34"/>
</g>
<!-- Area&#45;&gt;Picture -->
<g id="edge28" class="edge"><title>Area&#45;&gt;Picture</title>
<path fill="none" stroke="#a3635e" d="M1015.91,-452.841C1016.79,-410.121 1020.83,-320.933 1038.69,-248 1039.39,-245.139 1040.27,-242.203 1041.26,-239.306"/>
<ellipse fill="none" stroke="#a3635e" cx="1015.84" cy="-456.989" rx="4" ry="4"/>
<polygon fill="#a3635e" stroke="#a3635e" points="1041.33,-239.127 1049.08,-231.367 1043.1,-234.451 1044.87,-229.774 1044.87,-229.774 1044.87,-229.774 1043.1,-234.451 1040.66,-228.182 1041.33,-239.127 1041.33,-239.127"/>
</g>
<!-- Area&#45;&gt;ProductService -->
<g id="edge33" class="edge"><title>Area&#45;&gt;ProductService</title>
<path fill="none" stroke="#bcfe0c" d="M1043.75,-461.768C1091.7,-432.542 1189.21,-366.372 1240.69,-284 1248.99,-270.71 1254.15,-253.975 1257.28,-240.09"/>
<ellipse fill="none" stroke="#bcfe0c" cx="1040.19" cy="-463.909" rx="4.00002" ry="4.00002"/>
<polygon fill="#bcfe0c" stroke="#bcfe0c" points="1257.31,-239.935 1263.7,-231.023 1258.3,-235.034 1259.29,-230.133 1259.29,-230.133 1259.29,-230.133 1258.3,-235.034 1254.88,-229.242 1257.31,-239.935 1257.31,-239.935"/>
</g>
<!-- Area&#45;&gt;Review -->
<g id="edge29" class="edge"><title>Area&#45;&gt;Review</title>
<path fill="none" stroke="#65949c" d="M1008.54,-453.093C994.239,-403.21 962.182,-291.434 947.411,-239.929"/>
<ellipse fill="none" stroke="#65949c" cx="1009.72" cy="-457.175" rx="4.00001" ry="4.00001"/>
<polygon fill="#65949c" stroke="#65949c" points="947.372,-239.794 948.941,-228.941 945.994,-234.988 944.615,-230.182 944.615,-230.182 944.615,-230.182 945.994,-234.988 940.29,-231.422 947.372,-239.794 947.372,-239.794"/>
</g>
<!-- Area&#45;&gt;Service -->
<g id="edge34" class="edge"><title>Area&#45;&gt;Service</title>
<path fill="none" stroke="#41ad45" d="M1026.95,-451.919C1052.13,-393.695 1111.19,-257.468 1116.69,-248 1118.83,-244.318 1121.28,-240.565 1123.81,-236.949"/>
<polygon fill="#41ad45" stroke="#41ad45" points="1026.91,-452.023 1018.81,-459.416 1024.93,-456.612 1022.94,-461.202 1022.94,-461.202 1022.94,-461.202 1024.93,-456.612 1027.07,-462.987 1026.91,-452.023 1026.91,-452.023"/>
<polygon fill="#41ad45" stroke="#41ad45" points="1123.82,-236.93 1133.36,-231.516 1126.77,-232.895 1129.73,-228.859 1129.73,-228.859 1129.73,-228.859 1126.77,-232.895 1126.09,-226.203 1123.82,-236.93 1123.82,-236.93"/>
</g>
<!-- Area&#45;&gt;SpecialPrice -->
<g id="edge30" class="edge"><title>Area&#45;&gt;SpecialPrice</title>
<path fill="none" stroke="#2e0910" d="M999.274,-455.695C963.14,-406.589 876.921,-289.42 839.055,-237.96"/>
<ellipse fill="none" stroke="#2e0910" cx="1001.7" cy="-458.995" rx="4.00002" ry="4.00002"/>
<polygon fill="#2e0910" stroke="#2e0910" points="838.914,-237.769 836.612,-227.048 835.951,-233.742 832.987,-229.715 832.987,-229.715 832.987,-229.715 835.951,-233.742 829.363,-232.382 838.914,-237.769 838.914,-237.769"/>
</g>
<!-- Area&#45;&gt;PaperTrail::Version -->
<g id="edge27" class="edge"><title>Area&#45;&gt;PaperTrail::Version</title>
<path fill="none" stroke="#4bc19d" d="M986.129,-462.655C926.747,-429.746 795.413,-345.856 757.688,-230 737.327,-167.472 751.488,-138.042 791.688,-86 808.046,-64.8231 817.17,-62.0555 842.688,-54 897.917,-36.5653 1265.71,-25.3756 1437.53,-21.0391"/>
<ellipse fill="none" stroke="#4bc19d" cx="989.831" cy="-464.678" rx="4.00002" ry="4.00002"/>
<polygon fill="#4bc19d" stroke="#4bc19d" points="1437.57,-21.0383 1447.68,-25.2867 1442.56,-20.9132 1447.56,-20.7881 1447.56,-20.7881 1447.56,-20.7881 1442.56,-20.9132 1447.45,-16.2895 1437.57,-21.0383 1437.57,-21.0383"/>
<text text-anchor="middle" x="806.019" y="-261.8" font-family="Times,serif" font-size="14.00">versions</text>
</g>
<!-- Customer -->
<g id="node12" class="node"><title>Customer</title>
<ellipse fill="none" stroke="black" cx="2052.69" cy="-479" rx="44.4923" ry="18"/>
<text text-anchor="middle" x="2052.69" y="-474.8" font-family="Times,serif" font-size="14.00">Customer</text>
</g>
<!-- Customer&#45;&gt;Event -->
<g id="edge38" class="edge"><title>Customer&#45;&gt;Event</title>
<path fill="none" stroke="#aa376b" d="M2004.91,-468.986C1990.12,-466.295 1973.75,-463.42 1958.69,-461 1833.5,-440.886 1684.68,-421.141 1614.75,-412.108"/>
<ellipse fill="none" stroke="#aa376b" cx="2009.02" cy="-469.738" rx="4.00001" ry="4.00001"/>
<polygon fill="#aa376b" stroke="#aa376b" points="1614.54,-412.081 1605.2,-406.34 1609.58,-411.442 1604.62,-410.803 1604.62,-410.803 1604.62,-410.803 1609.58,-411.442 1604.05,-415.266 1614.54,-412.081 1614.54,-412.081"/>
</g>
<!-- Customer&#45;&gt;EventChange -->
<g id="edge39" class="edge"><title>Customer&#45;&gt;EventChange</title>
<path fill="none" stroke="#41cb83" d="M2061.87,-451.362C2075.45,-407.611 2096.84,-318.369 2072.69,-248 2063.74,-221.929 2033.64,-156.664 2011.69,-140 1985.07,-119.798 1971.04,-130.353 1938.69,-122 1935.07,-121.067 1931.35,-120.093 1927.6,-119.104"/>
<polygon fill="#41cb83" stroke="#41cb83" points="2061.84,-451.454 2054.49,-459.597 2060.31,-456.214 2058.78,-460.974 2058.78,-460.974 2058.78,-460.974 2060.31,-456.214 2063.06,-462.351 2061.84,-451.454 2061.84,-451.454"/>
<polygon fill="#41cb83" stroke="#41cb83" points="1927.34,-119.035 1918.83,-112.118 1922.51,-117.751 1917.68,-116.467 1917.68,-116.467 1917.68,-116.467 1922.51,-117.751 1916.52,-120.816 1927.34,-119.035 1927.34,-119.035"/>
</g>
<!-- Customer&#45;&gt;Order -->
<g id="edge37" class="edge"><title>Customer&#45;&gt;Order</title>
<path fill="none" stroke="#ef3854" d="M2036.58,-454.951C1997.63,-399.474 1899.98,-262.048 1878.69,-248 1848.56,-228.12 1808.04,-219.529 1778.18,-215.818"/>
<ellipse fill="none" stroke="#ef3854" cx="2038.95" cy="-458.328" rx="4.00002" ry="4.00002"/>
<polygon fill="#ef3854" stroke="#ef3854" points="1778.03,-215.802 1768.59,-210.226 1773.06,-215.25 1768.09,-214.698 1768.09,-214.698 1768.09,-214.698 1773.06,-215.25 1767.59,-219.171 1778.03,-215.802 1778.03,-215.802"/>
</g>
<!-- Customer&#45;&gt;Wallet -->
<g id="edge40" class="edge"><title>Customer&#45;&gt;Wallet</title>
<path fill="none" stroke="#26f055" d="M2089.66,-462.234C2105.56,-455.667 2124.42,-448.155 2141.69,-442 2167.02,-432.973 2195.99,-424.025 2218.26,-417.436"/>
<ellipse fill="none" stroke="#26f055" cx="2085.81" cy="-463.836" rx="4.00002" ry="4.00002"/>
<ellipse fill="#26f055" stroke="#26f055" cx="2222.3" cy="-416.248" rx="4.00001" ry="4.00001"/>
</g>
<!-- Customer&#45;&gt;PaperTrail::Version -->
<g id="edge36" class="edge"><title>Customer&#45;&gt;PaperTrail::Version</title>
<path fill="none" stroke="#a15b70" d="M2095.2,-465.295C2100.73,-463.777 2106.33,-462.305 2111.69,-461 2251.61,-426.911 2303.67,-451.089 2422.69,-370 2507.06,-312.518 2528.5,-276.634 2545.69,-176 2552.74,-134.707 2541.59,-120.401 2517.69,-86 2506.73,-70.2384 2506.09,-62.0959 2488.69,-54 2410.86,-17.7955 1838.96,-17.1451 1615.14,-18.3115"/>
<ellipse fill="none" stroke="#a15b70" cx="2091.04" cy="-466.46" rx="4.00001" ry="4.00001"/>
<polygon fill="#a15b70" stroke="#a15b70" points="1615.07,-18.3118 1605.04,-13.8665 1610.07,-18.3391 1605.07,-18.3665 1605.07,-18.3665 1605.07,-18.3665 1610.07,-18.3391 1605.09,-22.8664 1615.07,-18.3118 1615.07,-18.3118"/>
<text text-anchor="middle" x="2551.02" y="-261.8" font-family="Times,serif" font-size="14.00">versions</text>
</g>
<!-- DailyPriceRule -->
<g id="node13" class="node"><title>DailyPriceRule</title>
<ellipse fill="none" stroke="black" cx="928.688" cy="-104" rx="64.7545" ry="18"/>
<text text-anchor="middle" x="928.688" y="-99.8" font-family="Times,serif" font-size="14.00">DailyPriceRule</text>
</g>
<!-- DailyPriceRule&#45;&gt;PaperTrail::Version -->
<g id="edge41" class="edge"><title>DailyPriceRule&#45;&gt;PaperTrail::Version</title>
<path fill="none" stroke="#f03502" d="M942.36,-79.0164C949.097,-69.5253 958.13,-59.5679 969.026,-54 1009.52,-33.3048 1290.37,-24.1352 1436.99,-20.7202"/>
<ellipse fill="none" stroke="#f03502" cx="940.082" cy="-82.4444" rx="4.00002" ry="4.00002"/>
<polygon fill="#f03502" stroke="#f03502" points="1437.31,-20.7129 1447.41,-24.983 1442.31,-20.5985 1447.31,-20.4841 1447.31,-20.4841 1447.31,-20.4841 1442.31,-20.5985 1447.21,-15.9853 1437.31,-20.7129 1437.31,-20.7129"/>
<text text-anchor="middle" x="993.019" y="-56.8" font-family="Times,serif" font-size="14.00">versions</text>
</g>
<!-- Deposit -->
<g id="node14" class="node"><title>Deposit</title>
<ellipse fill="none" stroke="black" cx="2343.69" cy="-158" rx="37.7352" ry="18"/>
<text text-anchor="middle" x="2343.69" y="-153.8" font-family="Times,serif" font-size="14.00">Deposit</text>
</g>
<!-- Deposit&#45;&gt;PaperTrail::Version -->
<g id="edge42" class="edge"><title>Deposit&#45;&gt;PaperTrail::Version</title>
<path fill="none" stroke="#abc0cc" d="M2322.66,-135.122C2295.62,-107.571 2249.53,-62.7615 2227.69,-54 2172.21,-31.7478 1790.38,-23.0549 1614.3,-20.2009"/>
<ellipse fill="none" stroke="#abc0cc" cx="2325.66" cy="-138.191" rx="4.00002" ry="4.00002"/>
<polygon fill="#abc0cc" stroke="#abc0cc" points="1614.28,-20.2007 1604.35,-15.5418 1609.28,-20.121 1604.28,-20.0412 1604.28,-20.0412 1604.28,-20.0412 1609.28,-20.121 1604.21,-24.5407 1614.28,-20.2007 1614.28,-20.2007"/>
<text text-anchor="middle" x="2331.02" y="-99.8" font-family="Times,serif" font-size="14.00">versions</text>
</g>
<!-- DepositRequest -->
<g id="node15" class="node"><title>DepositRequest</title>
<ellipse fill="none" stroke="black" cx="2256.69" cy="-212" rx="66.2167" ry="18"/>
<text text-anchor="middle" x="2256.69" y="-207.8" font-family="Times,serif" font-size="14.00">DepositRequest</text>
</g>
<!-- DepositResponse -->
<g id="node17" class="node"><title>DepositResponse</title>
<ellipse fill="none" stroke="black" cx="2105.69" cy="-104" rx="71.529" ry="18"/>
<text text-anchor="middle" x="2105.69" y="-99.8" font-family="Times,serif" font-size="14.00">DepositResponse</text>
</g>
<!-- DepositRequest&#45;&gt;DepositResponse -->
<g id="edge44" class="edge"><title>DepositRequest&#45;&gt;DepositResponse</title>
<path fill="none" stroke="#965cbf" d="M2261.75,-185.664C2263.22,-170.721 2262.17,-152.373 2251.69,-140 2248.8,-136.588 2207.05,-126.776 2168.93,-118.406"/>
<ellipse fill="none" stroke="#965cbf" cx="2261.17" cy="-190.033" rx="4.00001" ry="4.00001"/>
<polygon fill="#965cbf" stroke="#965cbf" points="2168.6,-118.334 2159.79,-111.806 2163.72,-117.269 2158.83,-116.203 2158.83,-116.203 2158.83,-116.203 2163.72,-117.269 2157.87,-120.599 2168.6,-118.334 2168.6,-118.334"/>
</g>
<!-- DepositRequest&#45;&gt;PaperTrail::Version -->
<g id="edge43" class="edge"><title>DepositRequest&#45;&gt;PaperTrail::Version</title>
<path fill="none" stroke="#8aae5b" d="M2270.03,-186.74C2276.15,-172.059 2280.16,-153.609 2270.69,-140 2257.51,-121.076 2241.38,-134.531 2222.03,-122 2203.2,-109.817 2205.9,-97.5534 2186.69,-86 2143.78,-60.2023 2127.98,-62.7474 2078.69,-54 1917.03,-25.3121 1725.13,-19.3194 1615.16,-18.5116"/>
<ellipse fill="none" stroke="#8aae5b" cx="2268.36" cy="-190.39" rx="4.00002" ry="4.00002"/>
<polygon fill="#8aae5b" stroke="#8aae5b" points="1615.11,-18.5114 1605.13,-13.9507 1610.11,-18.481 1605.11,-18.4506 1605.11,-18.4506 1605.11,-18.4506 1610.11,-18.481 1605.08,-22.9505 1615.11,-18.5114 1615.11,-18.5114"/>
<text text-anchor="middle" x="2245.02" y="-99.8" font-family="Times,serif" font-size="14.00">versions</text>
</g>
<!-- DepositRequestData -->
<g id="node16" class="node"><title>DepositRequestData</title>
<polygon fill="none" stroke="black" points="2154.27,-661.5 2023.1,-661.5 2023.1,-625.5 2154.27,-625.5 2154.27,-661.5"/>
<text text-anchor="middle" x="2088.69" y="-639.3" font-family="Times,serif" font-size="14.00">DepositRequestData</text>
</g>
<!-- DepositResponse&#45;&gt;PaperTrail::Version -->
<g id="edge45" class="edge"><title>DepositResponse&#45;&gt;PaperTrail::Version</title>
<path fill="none" stroke="#30c882" d="M2067.57,-84.1786C2043.99,-73.4312 2012.77,-60.7821 1983.69,-54 1915.56,-38.1126 1725.68,-27.5621 1612.94,-22.4958"/>
<ellipse fill="none" stroke="#30c882" cx="2071.32" cy="-85.9113" rx="4.00002" ry="4.00002"/>
<polygon fill="#30c882" stroke="#30c882" points="1612.94,-22.4958 1603.15,-17.5565 1607.94,-22.2739 1602.95,-22.0521 1602.95,-22.0521 1602.95,-22.0521 1607.94,-22.2739 1602.75,-26.5476 1612.94,-22.4958 1612.94,-22.4958"/>
<text text-anchor="middle" x="2051.02" y="-56.8" font-family="Times,serif" font-size="14.00">versions</text>
</g>
<!-- DepositResponseData -->
<g id="node18" class="node"><title>DepositResponseData</title>
<polygon fill="none" stroke="black" points="2311.33,-661.5 2172.05,-661.5 2172.05,-625.5 2311.33,-625.5 2311.33,-661.5"/>
<text text-anchor="middle" x="2241.69" y="-639.3" font-family="Times,serif" font-size="14.00">DepositResponseData</text>
</g>
<!-- Event&#45;&gt;AdditionalEventItem -->
<g id="edge48" class="edge"><title>Event&#45;&gt;AdditionalEventItem</title>
<path fill="none" stroke="#98eb00" d="M1572.49,-379.772C1570.4,-355.686 1567.25,-319.48 1565.09,-294.627"/>
<ellipse fill="none" stroke="#98eb00" cx="1572.85" cy="-383.816" rx="4" ry="4"/>
<polygon fill="#98eb00" stroke="#98eb00" points="1565.07,-294.378 1568.69,-284.026 1564.64,-289.397 1564.2,-284.416 1564.2,-284.416 1564.2,-284.416 1564.64,-289.397 1559.72,-284.805 1565.07,-294.378 1565.07,-294.378"/>
</g>
<!-- Event&#45;&gt;EventChange -->
<g id="edge47" class="edge"><title>Event&#45;&gt;EventChange</title>
<path fill="none" stroke="#d84ce6" d="M1606.94,-392.076C1650.02,-373.505 1726.72,-335.726 1776.69,-284 1820.67,-238.476 1851.4,-169.57 1866.01,-131.911"/>
<ellipse fill="none" stroke="#d84ce6" cx="1603.24" cy="-393.648" rx="4.00002" ry="4.00002"/>
<polygon fill="#d84ce6" stroke="#d84ce6" points="1866.16,-131.515 1873.91,-123.757 1867.93,-126.839 1869.7,-122.163 1869.7,-122.163 1869.7,-122.163 1867.93,-126.839 1865.49,-120.569 1866.16,-131.515 1866.16,-131.515"/>
</g>
<!-- Event&#45;&gt;Product -->
<g id="edge49" class="edge"><title>Event&#45;&gt;Product</title>
<path fill="none" stroke="#5e2454" d="M1538.75,-393.607C1489.59,-378.025 1401.63,-350.144 1350.19,-333.839"/>
<polygon fill="#5e2454" stroke="#5e2454" points="1538.78,-393.617 1546.95,-400.928 1543.54,-395.128 1548.31,-396.639 1548.31,-396.639 1548.31,-396.639 1543.54,-395.128 1549.67,-392.349 1538.78,-393.617 1538.78,-393.617"/>
<polygon fill="#5e2454" stroke="#5e2454" points="1349.95,-333.761 1341.77,-326.45 1345.18,-332.251 1340.41,-330.74 1340.41,-330.74 1340.41,-330.74 1345.18,-332.251 1339.05,-335.029 1349.95,-333.761 1349.95,-333.761"/>
</g>
<!-- Event&#45;&gt;ProductService -->
<g id="edge50" class="edge"><title>Event&#45;&gt;ProductService</title>
<path fill="none" stroke="#44927e" d="M1544.02,-387.99C1535.97,-382.781 1527.61,-376.652 1520.69,-370 1494.02,-344.365 1499.34,-327.658 1472.69,-302 1456.84,-286.738 1409.76,-257.01 1389.69,-248 1368.45,-238.47 1344.04,-231.011 1322.27,-225.473"/>
<polygon fill="#44927e" stroke="#44927e" points="1544.04,-388.005 1550.19,-397.089 1548.3,-390.633 1552.55,-393.261 1552.55,-393.261 1552.55,-393.261 1548.3,-390.633 1554.92,-389.433 1544.04,-388.005 1544.04,-388.005"/>
<polygon fill="#44927e" stroke="#44927e" points="1322.19,-225.451 1313.55,-218.693 1317.33,-224.257 1312.48,-223.062 1312.48,-223.062 1312.48,-223.062 1317.33,-224.257 1311.4,-227.432 1322.19,-225.451 1322.19,-225.451"/>
</g>
<!-- Event&#45;&gt;PaperTrail::Version -->
<g id="edge46" class="edge"><title>Event&#45;&gt;PaperTrail::Version</title>
<path fill="none" stroke="#279d8a" d="M1559.99,-381.765C1545.67,-360.01 1522.63,-327.172 1498.69,-302 1489.98,-292.846 1482.1,-295.416 1476.69,-284 1462.75,-254.586 1426.09,-261.993 1481.69,-86 1486.48,-70.8373 1495.76,-55.8621 1504.56,-43.9278"/>
<ellipse fill="none" stroke="#279d8a" cx="1562.31" cy="-385.338" rx="4.00002" ry="4.00002"/>
<polygon fill="#279d8a" stroke="#279d8a" points="1504.72,-43.7333 1514.39,-38.5649 1507.77,-39.7746 1510.82,-35.816 1510.82,-35.816 1510.82,-35.816 1507.77,-39.7746 1507.26,-33.067 1504.72,-43.7333 1504.72,-43.7333"/>
<text text-anchor="middle" x="1478.02" y="-207.8" font-family="Times,serif" font-size="14.00">versions</text>
</g>
<!-- EventChange&#45;&gt;PaperTrail::Version -->
<g id="edge51" class="edge"><title>EventChange&#45;&gt;PaperTrail::Version</title>
<path fill="none" stroke="#304e15" d="M1849.52,-81.9674C1835.54,-71.8461 1817.56,-60.5204 1799.69,-54 1740.21,-32.2971 1669.2,-23.6708 1614.37,-20.4055"/>
<ellipse fill="none" stroke="#304e15" cx="1852.83" cy="-84.4281" rx="4.00002" ry="4.00002"/>
<polygon fill="#304e15" stroke="#304e15" points="1614.31,-20.4025 1604.58,-15.363 1609.32,-20.1294 1604.33,-19.8563 1604.33,-19.8563 1604.33,-19.8563 1609.32,-20.1294 1604.08,-24.3496 1614.31,-20.4025 1614.31,-20.4025"/>
<text text-anchor="middle" x="1849.02" y="-56.8" font-family="Times,serif" font-size="14.00">versions</text>
</g>
<!-- EventObserver -->
<g id="node21" class="node"><title>EventObserver</title>
<polygon fill="none" stroke="black" points="2429.65,-661.5 2329.72,-661.5 2329.72,-625.5 2429.65,-625.5 2429.65,-661.5"/>
<text text-anchor="middle" x="2379.69" y="-639.3" font-family="Times,serif" font-size="14.00">EventObserver</text>
</g>
<!-- Option -->
<g id="node22" class="node"><title>Option</title>
<ellipse fill="none" stroke="black" cx="1525.69" cy="-104" rx="34.8458" ry="18"/>
<text text-anchor="middle" x="1525.69" y="-99.8" font-family="Times,serif" font-size="14.00">Option</text>
</g>
<!-- Option&#45;&gt;PaperTrail::Version -->
<g id="edge52" class="edge"><title>Option&#45;&gt;PaperTrail::Version</title>
<path fill="none" stroke="#017390" d="M1525.69,-77.2567C1525.69,-67.4415 1525.69,-56.2256 1525.69,-46.2729"/>
<ellipse fill="none" stroke="#017390" cx="1525.69" cy="-81.5951" rx="4" ry="4"/>
<polygon fill="#017390" stroke="#017390" points="1525.69,-46.0952 1530.19,-36.0951 1525.69,-41.0952 1525.69,-36.0952 1525.69,-36.0952 1525.69,-36.0952 1525.69,-41.0952 1521.19,-36.0952 1525.69,-46.0952 1525.69,-46.0952"/>
<text text-anchor="middle" x="1549.02" y="-56.8" font-family="Times,serif" font-size="14.00">versions</text>
</g>
<!-- Order&#45;&gt;Event -->
<g id="edge54" class="edge"><title>Order&#45;&gt;Event</title>
<path fill="none" stroke="#913dec" d="M1707.04,-227.542C1696.82,-233.159 1685.74,-240.138 1676.69,-248 1676.6,-248.078 1634.75,-301.902 1634.69,-302 1617.41,-327.576 1599.89,-358.314 1588.29,-379.517"/>
<ellipse fill="none" stroke="#913dec" cx="1710.75" cy="-225.573" rx="4.00002" ry="4.00002"/>
<polygon fill="#913dec" stroke="#913dec" points="1588.16,-379.746 1579.44,-386.388 1585.78,-384.141 1583.39,-388.535 1583.39,-388.535 1583.39,-388.535 1585.78,-384.141 1587.35,-390.682 1588.16,-379.746 1588.16,-379.746"/>
</g>
<!-- Order&#45;&gt;EventChange -->
<g id="edge55" class="edge"><title>Order&#45;&gt;EventChange</title>
<path fill="none" stroke="#46b12b" d="M1760.85,-191.216C1778.14,-176.666 1802.51,-156.614 1824.69,-140 1830.71,-135.485 1837.27,-130.817 1843.6,-126.419"/>
<ellipse fill="none" stroke="#46b12b" cx="1757.42" cy="-194.118" rx="4.00002" ry="4.00002"/>
<polygon fill="#46b12b" stroke="#46b12b" points="1843.8,-126.287 1854.59,-124.339 1847.92,-123.458 1852.04,-120.629 1852.04,-120.629 1852.04,-120.629 1847.92,-123.458 1849.5,-116.918 1843.8,-126.287 1843.8,-126.287"/>
</g>
<!-- Order&#45;&gt;PaperTrail::Version -->
<g id="edge53" class="edge"><title>Order&#45;&gt;PaperTrail::Version</title>
<path fill="none" stroke="#b43ebf" d="M1722.81,-188.073C1700.26,-154.8 1654.5,-92.8692 1602.69,-54 1594.49,-47.8537 1585.05,-42.4585 1575.64,-37.8612"/>
<ellipse fill="none" stroke="#b43ebf" cx="1725.04" cy="-191.397" rx="4.00002" ry="4.00002"/>
<polygon fill="#b43ebf" stroke="#b43ebf" points="1575.37,-37.7354 1568.19,-29.4487 1570.84,-35.6336 1566.3,-33.5318 1566.3,-33.5318 1566.3,-33.5318 1570.84,-35.6336 1564.41,-37.6149 1575.37,-37.7354 1575.37,-37.7354"/>
<text text-anchor="middle" x="1695.02" y="-99.8" font-family="Times,serif" font-size="14.00">versions</text>
</g>
<!-- OrderItem -->
<g id="node24" class="node"><title>OrderItem</title>
<polygon fill="none" stroke="black" points="2521.99,-661.5 2447.38,-661.5 2447.38,-625.5 2521.99,-625.5 2521.99,-661.5"/>
<text text-anchor="middle" x="2484.69" y="-639.3" font-family="Times,serif" font-size="14.00">OrderItem</text>
</g>
<!-- OrderObserver -->
<g id="node25" class="node"><title>OrderObserver</title>
<polygon fill="none" stroke="black" points="2639.65,-661.5 2539.73,-661.5 2539.73,-625.5 2639.65,-625.5 2639.65,-661.5"/>
<text text-anchor="middle" x="2589.69" y="-639.3" font-family="Times,serif" font-size="14.00">OrderObserver</text>
</g>
<!-- Picture&#45;&gt;PaperTrail::Version -->
<g id="edge56" class="edge"><title>Picture&#45;&gt;PaperTrail::Version</title>
<path fill="none" stroke="#45bf82" d="M1064.07,-186.608C1078.51,-158.294 1106.06,-112.149 1143.03,-86 1189.89,-52.8474 1343.62,-34.16 1441.38,-25.3591"/>
<ellipse fill="none" stroke="#45bf82" cx="1062.13" cy="-190.509" rx="4.00002" ry="4.00002"/>
<polygon fill="#45bf82" stroke="#45bf82" points="1441.58,-25.3415 1451.94,-28.9442 1446.56,-24.9016 1451.54,-24.4616 1451.54,-24.4616 1451.54,-24.4616 1446.56,-24.9016 1451.15,-19.9791 1441.58,-25.3415 1441.58,-25.3415"/>
<text text-anchor="middle" x="1167.02" y="-99.8" font-family="Times,serif" font-size="14.00">versions</text>
</g>
<!-- Product&#45;&gt;Order -->
<g id="edge61" class="edge"><title>Product&#45;&gt;Order</title>
<path fill="none" stroke="#adecd3" d="M1342.54,-300.922C1373.98,-284.458 1423.2,-260.819 1468.69,-248 1547.52,-225.785 1643.38,-217.601 1696.76,-214.636"/>
<polygon fill="#adecd3" stroke="#adecd3" points="1342.21,-301.095 1331.27,-301.806 1337.8,-303.438 1333.38,-305.781 1333.38,-305.781 1333.38,-305.781 1337.8,-303.438 1335.49,-309.757 1342.21,-301.095 1342.21,-301.095"/>
<polygon fill="#adecd3" stroke="#adecd3" points="1696.87,-214.631 1707.09,-218.604 1701.86,-214.37 1706.85,-214.11 1706.85,-214.11 1706.85,-214.11 1701.86,-214.37 1706.62,-209.616 1696.87,-214.631 1696.87,-214.631"/>
</g>
<!-- Product&#45;&gt;Picture -->
<g id="edge58" class="edge"><title>Product&#45;&gt;Picture</title>
<path fill="none" stroke="#49dcd2" d="M1269.68,-308.106C1248.08,-301.825 1221.12,-293.334 1197.69,-284 1157.74,-268.087 1113.61,-245.752 1084.64,-230.404"/>
<ellipse fill="none" stroke="#49dcd2" cx="1273.53" cy="-309.213" rx="4.00001" ry="4.00001"/>
<polygon fill="#49dcd2" stroke="#49dcd2" points="1084.62,-230.392 1077.92,-221.714 1080.21,-228.038 1075.8,-225.684 1075.8,-225.684 1075.8,-225.684 1080.21,-228.038 1073.68,-229.654 1084.62,-230.392 1084.62,-230.392"/>
</g>
<!-- Product&#45;&gt;ProductService -->
<g id="edge62" class="edge"><title>Product&#45;&gt;ProductService</title>
<path fill="none" stroke="#386bd6" d="M1298.61,-294.534C1291.12,-278.004 1281.25,-256.198 1273.6,-239.296"/>
<ellipse fill="none" stroke="#386bd6" cx="1300.33" cy="-298.325" rx="4.00002" ry="4.00002"/>
<polygon fill="#386bd6" stroke="#386bd6" points="1273.51,-239.098 1273.48,-228.132 1271.44,-234.543 1269.38,-229.988 1269.38,-229.988 1269.38,-229.988 1271.44,-234.543 1265.28,-231.845 1273.51,-239.098 1273.51,-239.098"/>
</g>
<!-- Product&#45;&gt;Review -->
<g id="edge59" class="edge"><title>Product&#45;&gt;Review</title>
<path fill="none" stroke="#2703bc" d="M1265.38,-313.479C1226.09,-307.982 1167.39,-298.289 1117.69,-284 1066.69,-269.338 1010.14,-245.384 974.754,-229.409"/>
<ellipse fill="none" stroke="#2703bc" cx="1269.49" cy="-314.044" rx="4.00001" ry="4.00001"/>
<polygon fill="#2703bc" stroke="#2703bc" points="974.458,-229.274 967.223,-221.034 969.908,-227.202 965.358,-225.129 965.358,-225.129 965.358,-225.129 969.908,-227.202 963.492,-229.224 974.458,-229.274 974.458,-229.274"/>
</g>
<!-- Product&#45;&gt;Service -->
<g id="edge63" class="edge"><title>Product&#45;&gt;Service</title>
<path fill="none" stroke="#7fac6a" d="M1279.01,-299.526C1248.85,-280.384 1203.09,-251.342 1173.05,-232.27"/>
<polygon fill="#7fac6a" stroke="#7fac6a" points="1279.41,-299.783 1285.44,-308.942 1283.63,-302.463 1287.86,-305.142 1287.86,-305.142 1287.86,-305.142 1283.63,-302.463 1290.27,-301.343 1279.41,-299.783 1279.41,-299.783"/>
<polygon fill="#7fac6a" stroke="#7fac6a" points="1172.7,-232.052 1166.67,-222.894 1168.48,-229.373 1164.26,-226.693 1164.26,-226.693 1164.26,-226.693 1168.48,-229.373 1161.85,-230.492 1172.7,-232.052 1172.7,-232.052"/>
</g>
<!-- Product&#45;&gt;SpecialPrice -->
<g id="edge60" class="edge"><title>Product&#45;&gt;SpecialPrice</title>
<path fill="none" stroke="#3a168b" d="M1263.8,-316.817C1205.46,-313.296 1101.95,-304.547 1015.69,-284 960.761,-270.917 900.005,-247.244 861.142,-230.85"/>
<ellipse fill="none" stroke="#3a168b" cx="1268.08" cy="-317.066" rx="4" ry="4"/>
<polygon fill="#3a168b" stroke="#3a168b" points="860.95,-230.768 853.513,-222.709 856.35,-228.809 851.75,-226.85 851.75,-226.85 851.75,-226.85 856.35,-228.809 849.986,-230.99 860.95,-230.768 860.95,-230.768"/>
</g>
<!-- Product&#45;&gt;PaperTrail::Version -->
<g id="edge57" class="edge"><title>Product&#45;&gt;PaperTrail::Version</title>
<path fill="none" stroke="#3d75c4" d="M1317.12,-293.858C1322.29,-276.083 1329.2,-251.66 1334.69,-230 1355.24,-148.863 1336.31,-106.263 1401.69,-54 1415.27,-43.1414 1432.04,-35.6501 1448.81,-30.4823"/>
<ellipse fill="none" stroke="#3d75c4" cx="1315.86" cy="-298.169" rx="4.00001" ry="4.00001"/>
<polygon fill="#3d75c4" stroke="#3d75c4" points="1449.03,-30.419 1459.88,-32.0308 1453.84,-29.0596 1458.65,-27.7003 1458.65,-27.7003 1458.65,-27.7003 1453.84,-29.0596 1457.43,-23.3698 1449.03,-30.419 1449.03,-30.419"/>
<text text-anchor="middle" x="1373.02" y="-153.8" font-family="Times,serif" font-size="14.00">versions</text>
</g>
<!-- ProductService&#45;&gt;PaperTrail::Version -->
<g id="edge64" class="edge"><title>ProductService&#45;&gt;PaperTrail::Version</title>
<path fill="none" stroke="#23ca21" d="M1262.83,-185.51C1265.17,-158.599 1272.16,-115.999 1293.03,-86 1307.38,-65.3547 1316.46,-63.6433 1339.69,-54 1372.28,-40.4683 1410.26,-32.1304 1443.37,-27.01"/>
<ellipse fill="none" stroke="#23ca21" cx="1262.52" cy="-189.671" rx="4" ry="4"/>
<polygon fill="#23ca21" stroke="#23ca21" points="1443.58,-26.9785 1454.13,-29.9741 1448.53,-26.2502 1453.48,-25.522 1453.48,-25.522 1453.48,-25.522 1448.53,-26.2502 1452.82,-21.07 1443.58,-26.9785 1443.58,-26.9785"/>
<text text-anchor="middle" x="1317.02" y="-99.8" font-family="Times,serif" font-size="14.00">versions</text>
</g>
<!-- Review&#45;&gt;PaperTrail::Version -->
<g id="edge65" class="edge"><title>Review&#45;&gt;PaperTrail::Version</title>
<path fill="none" stroke="#87e3f6" d="M955.079,-187.623C974.991,-159.259 1012.35,-112.015 1056.03,-86 1119.02,-48.4724 1321.6,-30.7356 1439.11,-23.414"/>
<ellipse fill="none" stroke="#87e3f6" cx="952.672" cy="-191.111" rx="4.00002" ry="4.00002"/>
<polygon fill="#87e3f6" stroke="#87e3f6" points="1439.18,-23.4098 1449.44,-27.2918 1444.18,-23.105 1449.17,-22.8001 1449.17,-22.8001 1449.17,-22.8001 1444.18,-23.105 1448.89,-18.3085 1439.18,-23.4098 1439.18,-23.4098"/>
<text text-anchor="middle" x="1080.02" y="-99.8" font-family="Times,serif" font-size="14.00">versions</text>
</g>
<!-- Service&#45;&gt;PaperTrail::Version -->
<g id="edge66" class="edge"><title>Service&#45;&gt;PaperTrail::Version</title>
<path fill="none" stroke="#9d5483" d="M1153.34,-186.706C1166.66,-158.882 1191.92,-113.591 1226.03,-86 1256.01,-61.7422 1269.5,-64.2157 1306.69,-54 1351.79,-41.6104 1403.41,-33.0979 1445.19,-27.5728"/>
<ellipse fill="none" stroke="#9d5483" cx="1151.6" cy="-190.438" rx="4.00002" ry="4.00002"/>
<polygon fill="#9d5483" stroke="#9d5483" points="1445.4,-27.5459 1455.9,-30.7296 1450.36,-26.9063 1455.32,-26.2666 1455.32,-26.2666 1455.32,-26.2666 1450.36,-26.9063 1454.74,-21.8036 1445.4,-27.5459 1445.4,-27.5459"/>
<text text-anchor="middle" x="1250.02" y="-99.8" font-family="Times,serif" font-size="14.00">versions</text>
</g>
<!-- SpecialPrice&#45;&gt;DailyPriceRule -->
<g id="edge68" class="edge"><title>SpecialPrice&#45;&gt;DailyPriceRule</title>
<path fill="none" stroke="#fbcee8" d="M843.34,-188.767C861.263,-171.176 886.234,-146.667 904.536,-128.705"/>
<ellipse fill="none" stroke="#fbcee8" cx="840.417" cy="-191.636" rx="4.00002" ry="4.00002"/>
<polygon fill="#fbcee8" stroke="#fbcee8" points="904.794,-128.451 915.083,-124.658 908.363,-124.949 911.931,-121.446 911.931,-121.446 911.931,-121.446 908.363,-124.949 908.779,-118.235 904.794,-128.451 904.794,-128.451"/>
</g>
<!-- SpecialPrice&#45;&gt;PaperTrail::Version -->
<g id="edge67" class="edge"><title>SpecialPrice&#45;&gt;PaperTrail::Version</title>
<path fill="none" stroke="#43a655" d="M808.84,-186.292C797.566,-158.768 785.386,-114.414 808.026,-86 846.555,-37.6439 1253.34,-24.0185 1436.81,-20.3192"/>
<ellipse fill="none" stroke="#43a655" cx="810.539" cy="-190.245" rx="4.00002" ry="4.00002"/>
<polygon fill="#43a655" stroke="#43a655" points="1436.97,-20.3161 1447.06,-24.619 1441.97,-20.218 1446.97,-20.1199 1446.97,-20.1199 1446.97,-20.1199 1441.97,-20.218 1446.88,-15.6207 1436.97,-20.3161 1436.97,-20.3161"/>
<text text-anchor="middle" x="832.019" y="-99.8" font-family="Times,serif" font-size="14.00">versions</text>
</g>
<!-- Stadium&#45;&gt;Area -->
<g id="edge77" class="edge"><title>Stadium&#45;&gt;Area</title>
<path fill="none" stroke="#7b11ca" d="M1204.22,-538.708C1161.21,-525.317 1093.03,-504.084 1051.52,-491.157"/>
<ellipse fill="none" stroke="#7b11ca" cx="1208.17" cy="-539.938" rx="4.00001" ry="4.00001"/>
<polygon fill="#7b11ca" stroke="#7b11ca" points="1051.37,-491.111 1043.16,-483.842 1046.6,-489.625 1041.82,-488.138 1041.82,-488.138 1041.82,-488.138 1046.6,-489.625 1040.48,-492.435 1051.37,-491.111 1051.37,-491.111"/>
</g>
<!-- Stadium&#45;&gt;Event -->
<g id="edge73" class="edge"><title>Stadium&#45;&gt;Event</title>
<path fill="none" stroke="#a063b1" d="M1292.95,-548.993C1333.85,-545.764 1392.72,-537.425 1439.69,-516 1485.64,-495.039 1529.3,-454.783 1553.97,-429.495"/>
<polygon fill="#a063b1" stroke="#a063b1" points="1292.93,-548.994 1282.63,-545.22 1287.94,-549.352 1282.95,-549.709 1282.95,-549.709 1282.95,-549.709 1287.94,-549.352 1283.27,-554.197 1292.93,-548.994 1292.93,-548.994"/>
<polygon fill="#a063b1" stroke="#a063b1" points="1554.07,-429.384 1564.24,-425.279 1557.54,-425.774 1561,-422.165 1561,-422.165 1561,-422.165 1557.54,-425.774 1557.75,-419.051 1554.07,-429.384 1554.07,-429.384"/>
</g>
<!-- Stadium&#45;&gt;Order -->
<g id="edge74" class="edge"><title>Stadium&#45;&gt;Order</title>
<path fill="none" stroke="#a9da0d" d="M1291.73,-545.298C1334.79,-539.651 1399.5,-529.841 1454.69,-516 1528.97,-497.368 1685.48,-428.889 1689.69,-424 1735.11,-371.25 1739.93,-284.318 1739.12,-240.323"/>
<polygon fill="#a9da0d" stroke="#a9da0d" points="1291.72,-545.299 1281.23,-542.112 1286.76,-545.937 1281.8,-546.576 1281.8,-546.576 1281.8,-546.576 1286.76,-545.937 1282.38,-551.039 1291.72,-545.299 1291.72,-545.299"/>
<polygon fill="#a9da0d" stroke="#a9da0d" points="1739.11,-240.105 1743.31,-229.975 1738.97,-235.107 1738.82,-230.11 1738.82,-230.11 1738.82,-230.11 1738.97,-235.107 1734.32,-230.244 1739.11,-240.105 1739.11,-240.105"/>
</g>
<!-- Stadium&#45;&gt;Picture -->
<g id="edge70" class="edge"><title>Stadium&#45;&gt;Picture</title>
<path fill="none" stroke="#b6d89b" d="M1220.41,-529.815C1182.86,-494.183 1109.53,-418.247 1073.69,-338 1059.63,-306.53 1054.92,-266.778 1053.37,-240.657"/>
<ellipse fill="none" stroke="#b6d89b" cx="1223.64" cy="-532.848" rx="4.00002" ry="4.00002"/>
<polygon fill="#b6d89b" stroke="#b6d89b" points="1053.36,-240.351 1057.38,-230.15 1053.12,-235.356 1052.88,-230.362 1052.88,-230.362 1052.88,-230.362 1053.12,-235.356 1048.39,-230.574 1053.36,-240.351 1053.36,-240.351"/>
</g>
<!-- Stadium&#45;&gt;ProductService -->
<g id="edge75" class="edge"><title>Stadium&#45;&gt;ProductService</title>
<path fill="none" stroke="#7a3f2a" d="M1260.63,-528.27C1287.31,-490.909 1337.99,-413.145 1356.69,-338 1360.55,-322.473 1363.01,-316.698 1356.69,-302 1342.9,-269.943 1325.19,-271.821 1299.69,-248 1295.59,-244.173 1291.23,-240.129 1286.98,-236.201"/>
<ellipse fill="none" stroke="#7a3f2a" cx="1258.29" cy="-531.522" rx="4.00002" ry="4.00002"/>
<polygon fill="#7a3f2a" stroke="#7a3f2a" points="1286.87,-236.107 1282.57,-226.021 1283.2,-232.718 1279.52,-229.33 1279.52,-229.33 1279.52,-229.33 1283.2,-232.718 1276.47,-232.639 1286.87,-236.107 1286.87,-236.107"/>
</g>
<!-- Stadium&#45;&gt;Review -->
<g id="edge71" class="edge"><title>Stadium&#45;&gt;Review</title>
<path fill="none" stroke="#256ee0" d="M1196.62,-547.89C1128.18,-542.344 1006.14,-528.259 976.688,-497 909.583,-425.77 923.79,-296.201 933.946,-240.098"/>
<ellipse fill="none" stroke="#256ee0" cx="1200.7" cy="-548.211" rx="4" ry="4"/>
<polygon fill="#256ee0" stroke="#256ee0" points="933.96,-240.024 940.257,-231.046 934.898,-235.113 935.836,-230.202 935.836,-230.202 935.836,-230.202 934.898,-235.113 931.416,-229.357 933.96,-240.024 933.96,-240.024"/>
</g>
<!-- Stadium&#45;&gt;Service -->
<g id="edge76" class="edge"><title>Stadium&#45;&gt;Service</title>
<path fill="none" stroke="#18da8e" d="M1243.69,-523.489C1243.69,-510.329 1243.69,-494.349 1243.69,-480 1243.69,-480 1243.69,-480 1243.69,-362 1243.69,-347.473 1190.41,-275.445 1161.24,-237.108"/>
<polygon fill="#18da8e" stroke="#18da8e" points="1243.69,-523.784 1239.19,-533.784 1243.69,-528.784 1243.69,-533.784 1243.69,-533.784 1243.69,-533.784 1243.69,-528.784 1248.19,-533.784 1243.69,-523.784 1243.69,-523.784"/>
<polygon fill="#18da8e" stroke="#18da8e" points="1161.14,-236.975 1158.65,-226.296 1158.11,-233.001 1155.07,-229.027 1155.07,-229.027 1155.07,-229.027 1158.11,-233.001 1151.5,-231.758 1161.14,-236.975 1161.14,-236.975"/>
</g>
<!-- Stadium&#45;&gt;SpecialPrice -->
<g id="edge72" class="edge"><title>Stadium&#45;&gt;SpecialPrice</title>
<path fill="none" stroke="#8371e6" d="M1196.43,-548.137C1122.69,-542.742 984.958,-528.637 948.688,-497 868.282,-426.865 835.786,-296.163 825.11,-239.897"/>
<ellipse fill="none" stroke="#8371e6" cx="1200.67" cy="-548.439" rx="4" ry="4"/>
<polygon fill="#8371e6" stroke="#8371e6" points="825.096,-239.822 827.738,-229.179 824.203,-234.902 823.311,-229.982 823.311,-229.982 823.311,-229.982 824.203,-234.902 818.883,-230.786 825.096,-239.822 825.096,-239.822"/>
</g>
<!-- Stadium&#45;&gt;PaperTrail::Version -->
<g id="edge69" class="edge"><title>Stadium&#45;&gt;PaperTrail::Version</title>
<path fill="none" stroke="#7e5568" d="M1271.05,-531.667C1283.25,-522.161 1297.19,-509.968 1307.69,-497 1330.83,-468.405 1331.83,-457.648 1346.69,-424 1411.09,-278.181 1400.7,-231.111 1466.69,-86 1473.44,-71.1457 1474.32,-66.6028 1484.69,-54 1488.02,-49.9477 1491.86,-45.9917 1495.82,-42.2842"/>
<ellipse fill="none" stroke="#7e5568" cx="1267.68" cy="-534.237" rx="4.00002" ry="4.00002"/>
<polygon fill="#7e5568" stroke="#7e5568" points="1496.01,-42.1223 1506.48,-38.8729 1499.75,-38.8115 1503.5,-35.5007 1503.5,-35.5007 1503.5,-35.5007 1499.75,-38.8115 1500.52,-32.1285 1496.01,-42.1223 1496.01,-42.1223"/>
<text text-anchor="middle" x="1416.02" y="-315.8" font-family="Times,serif" font-size="14.00">versions</text>
</g>
<!-- StadiumUser -->
<g id="node33" class="node"><title>StadiumUser</title>
<ellipse fill="none" stroke="black" cx="1839.69" cy="-643.5" rx="56.07" ry="18"/>
<text text-anchor="middle" x="1839.69" y="-639.3" font-family="Times,serif" font-size="14.00">StadiumUser</text>
</g>
<!-- StadiumUser&#45;&gt;Event -->
<g id="edge80" class="edge"><title>StadiumUser&#45;&gt;Event</title>
<path fill="none" stroke="#d1636d" d="M1829.85,-617.896C1819.52,-594.31 1801.46,-558.737 1777.69,-534 1727.48,-481.747 1651.52,-441.77 1608.17,-421.579"/>
<ellipse fill="none" stroke="#d1636d" cx="1831.49" cy="-621.723" rx="4.00002" ry="4.00002"/>
<polygon fill="#d1636d" stroke="#d1636d" points="1608,-421.505 1600.79,-413.249 1603.46,-419.422 1598.91,-417.34 1598.91,-417.34 1598.91,-417.34 1603.46,-419.422 1597.04,-421.431 1608,-421.505 1608,-421.505"/>
</g>
<!-- StadiumUser&#45;&gt;EventChange -->
<g id="edge81" class="edge"><title>StadiumUser&#45;&gt;EventChange</title>
<path fill="none" stroke="#06d24e" d="M1874.48,-622.46C1884.14,-617.184 1894.72,-611.667 1904.69,-607 2025.41,-550.502 2108.69,-607.187 2183.69,-497 2207.27,-462.347 2096.18,-163.825 2061.69,-140 2016.23,-108.599 1992.79,-133.216 1938.69,-122 1934.63,-121.159 1930.45,-120.212 1926.26,-119.205"/>
<polygon fill="#06d24e" stroke="#06d24e" points="1874.3,-622.561 1863.37,-623.473 1869.93,-624.985 1865.56,-627.409 1865.56,-627.409 1865.56,-627.409 1869.93,-624.985 1867.74,-631.345 1874.3,-622.561 1874.3,-622.561"/>
<polygon fill="#06d24e" stroke="#06d24e" points="1926.23,-119.197 1917.62,-112.406 1921.38,-117.985 1916.52,-116.772 1916.52,-116.772 1916.52,-116.772 1921.38,-117.985 1915.43,-121.138 1926.23,-119.197 1926.23,-119.197"/>
</g>
<!-- StadiumUser&#45;&gt;Order -->
<g id="edge79" class="edge"><title>StadiumUser&#45;&gt;Order</title>
<path fill="none" stroke="#c9c149" d="M1838.69,-617.166C1835.35,-552.785 1821.23,-378.746 1763.69,-248 1761.97,-244.103 1759.76,-240.229 1757.34,-236.555"/>
<ellipse fill="none" stroke="#c9c149" cx="1838.88" cy="-621.165" rx="4" ry="4"/>
<polygon fill="#c9c149" stroke="#c9c149" points="1757.33,-236.546 1755.14,-225.802 1754.41,-232.489 1751.49,-228.433 1751.49,-228.433 1751.49,-228.433 1754.41,-232.489 1747.84,-231.063 1757.33,-236.546 1757.33,-236.546"/>
</g>
<!-- StadiumUser&#45;&gt;Product -->
<g id="edge84" class="edge"><title>StadiumUser&#45;&gt;Product</title>
<path fill="none" stroke="#9186f9" d="M1807.49,-622.967C1711.92,-564.997 1430.89,-394.52 1339.07,-338.826"/>
<ellipse fill="none" stroke="#9186f9" cx="1811.06" cy="-625.135" rx="4.00002" ry="4.00002"/>
<ellipse fill="#9186f9" stroke="#9186f9" cx="1335.46" cy="-336.633" rx="4.00002" ry="4.00002"/>
</g>
<!-- StadiumUser&#45;&gt;Stadium -->
<g id="edge83" class="edge"><title>StadiumUser&#45;&gt;Stadium</title>
<path fill="none" stroke="#875ca1" d="M1792.86,-628.108C1767.8,-620.864 1736.29,-612.48 1707.69,-607 1556.8,-578.092 1375.14,-562.397 1290.87,-556.19"/>
<ellipse fill="none" stroke="#875ca1" cx="1796.92" cy="-629.293" rx="4.00001" ry="4.00001"/>
<ellipse fill="#875ca1" stroke="#875ca1" cx="1286.77" cy="-555.892" rx="4" ry="4"/>
</g>
<!-- StadiumUser&#45;&gt;Wallet -->
<g id="edge82" class="edge"><title>StadiumUser&#45;&gt;Wallet</title>
<path fill="none" stroke="#d12b9d" d="M1869.46,-622.645C1880.13,-616.521 1892.53,-610.478 1904.69,-607 1980.3,-585.358 2212.08,-634.783 2256.69,-570 2289.05,-523 2276.07,-498.286 2266.69,-442 2266.12,-438.578 2265.25,-435.043 2264.25,-431.594"/>
<ellipse fill="none" stroke="#d12b9d" cx="1865.81" cy="-624.819" rx="4.00002" ry="4.00002"/>
<ellipse fill="#d12b9d" stroke="#d12b9d" cx="2262.94" cy="-427.6" rx="4.00001" ry="4.00001"/>
</g>
<!-- StadiumUser&#45;&gt;PaperTrail::Version -->
<g id="edge78" class="edge"><title>StadiumUser&#45;&gt;PaperTrail::Version</title>
<path fill="none" stroke="#ad8388" d="M1869.45,-622.609C1880.12,-616.482 1892.53,-610.447 1904.69,-607 1985.82,-584.008 2661.69,-637.325 2661.69,-553 2661.69,-553 2661.69,-553 2661.69,-103 2661.69,-51.5019 2606.77,-66.005 2556.69,-54 2466.54,-32.3894 1847.81,-22.8409 1614.48,-19.9793"/>
<ellipse fill="none" stroke="#ad8388" cx="1865.8" cy="-624.786" rx="4.00002" ry="4.00002"/>
<polygon fill="#ad8388" stroke="#ad8388" points="1614.33,-19.9776 1604.39,-15.3565 1609.33,-19.9169 1604.33,-19.8561 1604.33,-19.8561 1604.33,-19.8561 1609.33,-19.9169 1604.28,-24.3558 1614.33,-19.9776 1614.33,-19.9776"/>
<text text-anchor="middle" x="2685.02" y="-358.8" font-family="Times,serif" font-size="14.00">versions</text>
</g>
<!-- StaticPage -->
<g id="node34" class="node"><title>StaticPage</title>
<ellipse fill="none" stroke="black" cx="2446.69" cy="-104" rx="47.3736" ry="18"/>
<text text-anchor="middle" x="2446.69" y="-99.8" font-family="Times,serif" font-size="14.00">StaticPage</text>
</g>
<!-- StaticPage&#45;&gt;PaperTrail::Version -->
<g id="edge85" class="edge"><title>StaticPage&#45;&gt;PaperTrail::Version</title>
<path fill="none" stroke="#68173f" d="M2425.9,-80.7201C2415,-70.607 2400.79,-59.6607 2385.69,-54 2315.04,-27.5127 1820.59,-21.0343 1615.01,-19.4795"/>
<ellipse fill="none" stroke="#68173f" cx="2429.04" cy="-83.7532" rx="4.00002" ry="4.00002"/>
<polygon fill="#68173f" stroke="#68173f" points="1614.85,-19.4784 1604.89,-14.905 1609.85,-19.4417 1604.85,-19.4049 1604.85,-19.4049 1604.85,-19.4049 1609.85,-19.4417 1604.82,-23.9048 1614.85,-19.4784 1614.85,-19.4784"/>
<text text-anchor="middle" x="2433.02" y="-56.8" font-family="Times,serif" font-size="14.00">versions</text>
</g>
<!-- User -->
<g id="node35" class="node"><title>User</title>
<ellipse fill="none" stroke="black" cx="2147.69" cy="-479" rx="27" ry="18"/>
<text text-anchor="middle" x="2147.69" y="-474.8" font-family="Times,serif" font-size="14.00">User</text>
</g>
<!-- User&#45;&gt;Event -->
<g id="edge88" class="edge"><title>User&#45;&gt;Event</title>
<path fill="none" stroke="#482cd9" d="M2118.72,-465.046C2114.42,-463.482 2109.98,-462.065 2105.69,-461 1926.82,-416.663 1705.4,-408.624 1615.49,-407.243"/>
<ellipse fill="none" stroke="#482cd9" cx="2122.55" cy="-466.529" rx="4.00001" ry="4.00001"/>
<polygon fill="#482cd9" stroke="#482cd9" points="1615.44,-407.243 1605.5,-402.609 1610.44,-407.176 1605.44,-407.109 1605.44,-407.109 1605.44,-407.109 1610.44,-407.176 1605.38,-411.609 1615.44,-407.243 1615.44,-407.243"/>
</g>
<!-- User&#45;&gt;EventChange -->
<g id="edge89" class="edge"><title>User&#45;&gt;EventChange</title>
<path fill="none" stroke="#580202" d="M2143.89,-450.759C2135.88,-398.681 2114.26,-282.323 2070.69,-194 2058.14,-168.566 2060.17,-155.903 2036.69,-140 2000.02,-115.169 1981.88,-131.777 1938.69,-122 1934.82,-121.125 1930.83,-120.171 1926.83,-119.176"/>
<polygon fill="#580202" stroke="#580202" points="2143.92,-450.972 2140.95,-461.527 2144.66,-455.918 2145.4,-460.863 2145.4,-460.863 2145.4,-460.863 2144.66,-455.918 2149.85,-460.199 2143.92,-450.972 2143.92,-450.972"/>
<polygon fill="#580202" stroke="#580202" points="1926.6,-119.118 1918.02,-112.283 1921.76,-117.88 1916.91,-116.643 1916.91,-116.643 1916.91,-116.643 1921.76,-117.88 1915.8,-121.003 1926.6,-119.118 1926.6,-119.118"/>
</g>
<!-- User&#45;&gt;Order -->
<g id="edge87" class="edge"><title>User&#45;&gt;Order</title>
<path fill="none" stroke="#eb8a7f" d="M2125.67,-458.571C2087.16,-424.326 2005.5,-350.54 1940.69,-284 1925.75,-268.665 1927.23,-258.693 1908.69,-248 1868.43,-224.787 1815.04,-216.825 1778.69,-214.173"/>
<ellipse fill="none" stroke="#eb8a7f" cx="2128.92" cy="-461.453" rx="4.00002" ry="4.00002"/>
<polygon fill="#eb8a7f" stroke="#eb8a7f" points="1778.44,-214.157 1768.74,-209.041 1773.45,-213.845 1768.46,-213.533 1768.46,-213.533 1768.46,-213.533 1773.45,-213.845 1768.18,-218.024 1778.44,-214.157 1778.44,-214.157"/>
</g>
<!-- User&#45;&gt;Wallet -->
<g id="edge90" class="edge"><title>User&#45;&gt;Wallet</title>
<path fill="none" stroke="#6cae18" d="M2173.42,-460.927C2189.8,-450.057 2210.99,-435.998 2227.62,-424.96"/>
<ellipse fill="none" stroke="#6cae18" cx="2169.66" cy="-463.421" rx="4.00002" ry="4.00002"/>
<ellipse fill="#6cae18" stroke="#6cae18" cx="2231.11" cy="-422.644" rx="4.00002" ry="4.00002"/>
</g>
<!-- User&#45;&gt;PaperTrail::Version -->
<g id="edge86" class="edge"><title>User&#45;&gt;PaperTrail::Version</title>
<path fill="none" stroke="#db7ccf" d="M2182.78,-476.675C2288.97,-471.721 2599.69,-449.887 2599.69,-364 2599.69,-364 2599.69,-364 2599.69,-103 2599.69,-57.8457 2554.21,-66.0178 2510.69,-54 2425.86,-30.5784 1841.33,-22.1983 1614.96,-19.8097"/>
<ellipse fill="none" stroke="#db7ccf" cx="2178.6" cy="-476.862" rx="4" ry="4"/>
<polygon fill="#db7ccf" stroke="#db7ccf" points="1614.78,-19.8079 1604.82,-15.204 1609.78,-19.7559 1604.78,-19.7038 1604.78,-19.7038 1604.78,-19.7038 1609.78,-19.7559 1604.73,-24.2036 1614.78,-19.8079 1614.78,-19.8079"/>
<text text-anchor="middle" x="2623.02" y="-261.8" font-family="Times,serif" font-size="14.00">versions</text>
</g>
<!-- Wallet&#45;&gt;Deposit -->
<g id="edge92" class="edge"><title>Wallet&#45;&gt;Deposit</title>
<path fill="none" stroke="#07ba88" d="M2267.4,-381.271C2284.54,-348.271 2314.85,-286.226 2331.69,-230 2335.93,-215.826 2338.82,-199.581 2340.69,-186.211"/>
<ellipse fill="none" stroke="#07ba88" cx="2265.4" cy="-385.086" rx="4.00002" ry="4.00002"/>
<polygon fill="#07ba88" stroke="#07ba88" points="2340.7,-186.116 2346.45,-176.775 2341.35,-181.157 2341.99,-176.198 2341.99,-176.198 2341.99,-176.198 2341.35,-181.157 2337.52,-175.622 2340.7,-186.116 2340.7,-186.116"/>
</g>
<!-- Wallet&#45;&gt;DepositRequest -->
<g id="edge93" class="edge"><title>Wallet&#45;&gt;DepositRequest</title>
<path fill="none" stroke="#8ff320" d="M2254.95,-379.587C2255.33,-343.371 2256.02,-277.198 2256.41,-240.085"/>
<ellipse fill="none" stroke="#8ff320" cx="2254.91" cy="-383.961" rx="4" ry="4"/>
<polygon fill="#8ff320" stroke="#8ff320" points="2256.41,-240 2261.01,-230.047 2256.46,-235 2256.51,-230.001 2256.51,-230.001 2256.51,-230.001 2256.46,-235 2252.01,-229.954 2256.41,-240 2256.41,-240"/>
</g>
<!-- Withdrawal -->
<g id="node37" class="node"><title>Withdrawal</title>
<ellipse fill="none" stroke="black" cx="2454.69" cy="-266" rx="51.5002" ry="18"/>
<text text-anchor="middle" x="2454.69" y="-261.8" font-family="Times,serif" font-size="14.00">Withdrawal</text>
</g>
<!-- Wallet&#45;&gt;Withdrawal -->
<g id="edge94" class="edge"><title>Wallet&#45;&gt;Withdrawal</title>
<path fill="none" stroke="#349b62" d="M2296.12,-404.25C2327.99,-401.681 2371.55,-393.617 2401.69,-370 2426.09,-350.875 2440.33,-317.425 2447.79,-293.843"/>
<ellipse fill="none" stroke="#349b62" cx="2291.86" cy="-404.541" rx="4" ry="4"/>
<polygon fill="#349b62" stroke="#349b62" points="2447.83,-293.69 2454.98,-285.375 2449.25,-288.895 2450.67,-284.1 2450.67,-284.1 2450.67,-284.1 2449.25,-288.895 2446.35,-282.825 2447.83,-293.69 2447.83,-293.69"/>
</g>
<!-- WithdrawalRequest -->
<g id="node38" class="node"><title>WithdrawalRequest</title>
<ellipse fill="none" stroke="black" cx="2170.69" cy="-158" rx="79.9819" ry="18"/>
<text text-anchor="middle" x="2170.69" y="-153.8" font-family="Times,serif" font-size="14.00">WithdrawalRequest</text>
</g>
<!-- Wallet&#45;&gt;WithdrawalRequest -->
<g id="edge95" class="edge"><title>Wallet&#45;&gt;WithdrawalRequest</title>
<path fill="none" stroke="#64a201" d="M2244.38,-380.717C2224.77,-334.482 2183.85,-237.695 2181.69,-230 2177.69,-215.789 2175.03,-199.542 2173.34,-186.179"/>
<ellipse fill="none" stroke="#64a201" cx="2245.99" cy="-384.525" rx="4.00002" ry="4.00002"/>
<polygon fill="#64a201" stroke="#64a201" points="2173.33,-186.108 2176.65,-175.655 2172.75,-181.141 2172.18,-176.174 2172.18,-176.174 2172.18,-176.174 2172.75,-181.141 2167.71,-176.694 2173.33,-186.108 2173.33,-186.108"/>
</g>
<!-- Wallet&#45;&gt;PaperTrail::Version -->
<g id="edge91" class="edge"><title>Wallet&#45;&gt;PaperTrail::Version</title>
<path fill="none" stroke="#a945b7" d="M2276.98,-384.092C2281.37,-379.599 2285.81,-374.766 2289.69,-370 2300.42,-356.805 2302.54,-352.933 2310.69,-338 2365.26,-237.988 2443.7,-160.713 2357.69,-86 2320.54,-53.7289 2300.18,-62.3586 2251.69,-54 2131.71,-33.3212 1780.13,-23.9308 1614.25,-20.56"/>
<ellipse fill="none" stroke="#a945b7" cx="2273.92" cy="-387.143" rx="4.00002" ry="4.00002"/>
<polygon fill="#a945b7" stroke="#a945b7" points="1614.08,-20.5566 1604.17,-15.857 1609.08,-20.4564 1604.08,-20.3561 1604.08,-20.3561 1604.08,-20.3561 1609.08,-20.4564 1603.99,-24.8552 1614.08,-20.5566 1614.08,-20.5566"/>
<text text-anchor="middle" x="2412.02" y="-207.8" font-family="Times,serif" font-size="14.00">versions</text>
</g>
<!-- Withdrawal&#45;&gt;PaperTrail::Version -->
<g id="edge96" class="edge"><title>Withdrawal&#45;&gt;PaperTrail::Version</title>
<path fill="none" stroke="#bb76bc" d="M2464.15,-240.062C2477.03,-205.609 2498.92,-145.089 2502.69,-122 2505.27,-106.209 2509.79,-100.338 2502.69,-86 2492.27,-64.9706 2482.78,-61.9199 2460.69,-54 2382.56,-25.9889 1833.23,-20.3954 1614.87,-19.2786"/>
<ellipse fill="none" stroke="#bb76bc" cx="2462.64" cy="-244.068" rx="4.00001" ry="4.00001"/>
<polygon fill="#bb76bc" stroke="#bb76bc" points="1614.73,-19.278 1604.75,-14.7288 1609.73,-19.2533 1604.73,-19.2287 1604.73,-19.2287 1604.73,-19.2287 1609.73,-19.2533 1604.71,-23.7287 1614.73,-19.278 1614.73,-19.278"/>
<text text-anchor="middle" x="2521.02" y="-153.8" font-family="Times,serif" font-size="14.00">versions</text>
</g>
<!-- WithdrawalRequest&#45;&gt;PaperTrail::Version -->
<g id="edge97" class="edge"><title>WithdrawalRequest&#45;&gt;PaperTrail::Version</title>
<path fill="none" stroke="#e83808" d="M2105.7,-143.609C2099.28,-142.359 2092.86,-141.136 2086.69,-140 2038.54,-131.144 2021.46,-144.58 1978.03,-122 1958.13,-111.658 1960.9,-99.0829 1942.69,-86 1916.21,-66.9774 1908.06,-62.8654 1876.69,-54 1790.05,-29.5151 1687.16,-21.6098 1615.25,-19.3164"/>
<ellipse fill="none" stroke="#e83808" cx="2109.88" cy="-144.432" rx="4.00001" ry="4.00001"/>
<polygon fill="#e83808" stroke="#e83808" points="1614.87,-19.3055 1605.01,-14.5193 1609.87,-19.1615 1604.88,-19.0174 1604.88,-19.0174 1604.88,-19.0174 1609.87,-19.1615 1604.75,-23.5156 1614.87,-19.3055 1614.87,-19.3055"/>
<text text-anchor="middle" x="2001.02" y="-99.8" font-family="Times,serif" font-size="14.00">versions</text>
</g>
<!-- WithdrawalRequestData -->
<g id="node39" class="node"><title>WithdrawalRequestData</title>
<polygon fill="none" stroke="black" points="2811.25,-661.5 2658.13,-661.5 2658.13,-625.5 2811.25,-625.5 2811.25,-661.5"/>
<text text-anchor="middle" x="2734.69" y="-639.3" font-family="Times,serif" font-size="14.00">WithdrawalRequestData</text>
</g>
</g>
</svg>
